<svg width="11" height="11" viewBox="0 0 11 11" xmlns="http://www.w3.org/2000/svg">
    <g fill-rule="nonzero" fill="none">
        <path fill="#4589FF" d="m6.971 0 .9 1.39 1.654.083.084 1.653L11 4.025l-.755 1.473L11 6.971l-1.39.9-.083 1.654-1.653.084L6.975 11l-1.473-.755L4.029 11l-.9-1.39-1.654-.083-.084-1.653L0 6.975l.755-1.473L0 4.029l1.39-.9.083-1.654 1.653-.084L4.025 0l1.473.755z"/>
        <path fill="#FFF" d="M4.819 7.4 3.116 5.699l.557-.554 1.154 1.154L7.33 3.869l.549.565z"/>
    </g>
</svg>
