<svg width="24" height="24" viewBox="0 0 24 24" fill="none" xmlns="http://www.w3.org/2000/svg">
<path d="M12 0.461539C12 0.206638 12.2066 0 12.4615 0H18.0788C18.2333 0 18.3195 0.178582 18.2233 0.299543L16.993 1.84615L18.2233 3.39276C18.3195 3.51373 18.2333 3.69231 18.0788 3.69231H12.4615C12.2066 3.69231 12 3.48567 12 3.23077V0.461539Z" fill="#9462E4"/>
<path d="M9.38345 5.95645C10.3093 5.21776 10.7722 4.84841 11.2946 4.70815C11.7548 4.58459 12.2452 4.58459 12.7055 4.70815C13.2278 4.84841 13.6908 5.21776 14.6166 5.95645L19.7789 10.0753C20.7901 10.8821 21.2957 11.2855 21.3517 11.6393C21.4001 11.9456 21.2916 12.2558 21.0627 12.465C20.7982 12.7067 20.1514 12.7067 18.8578 12.7067H5.14227C3.84864 12.7067 3.20182 12.7067 2.93736 12.465C2.70846 12.2558 2.59989 11.9456 2.64835 11.6393C2.70433 11.2855 3.20994 10.8821 4.22116 10.0753L9.38345 5.95645Z" fill="#9462E4"/>
<rect x="4.61536" y="13.8462" width="2.76923" height="6.46154" rx="0.646154" fill="#9462E4"/>
<rect x="2.76929" y="21.2307" width="18.4615" height="2.76923" rx="0.646154" fill="#9462E4"/>
<rect x="10.6154" y="13.8462" width="2.76923" height="6.46154" rx="0.646154" fill="#9462E4"/>
<rect x="16.6154" y="13.8462" width="2.76923" height="6.46154" rx="0.646154" fill="#9462E4"/>
</svg>
