<svg width="22" height="21" viewBox="0 0 22 21" fill="none" xmlns="http://www.w3.org/2000/svg">
<path fill-rule="evenodd" clip-rule="evenodd" d="M0.888916 4.02144C0.888916 2.28549 2.16042 0.811431 3.87758 0.556687C8.60002 -0.143896 13.4 -0.143894 18.1224 0.556685C19.8396 0.811429 21.1111 2.28549 21.1111 4.02145V13.3598C21.1111 15.2522 19.7088 16.8517 17.8326 17.0991C16.3702 17.2919 14.9017 17.4226 13.431 17.491L11.8219 19.8136C11.4242 20.3876 10.5756 20.3876 10.1779 19.8136L8.56881 17.491C7.09819 17.4226 5.62974 17.2919 4.16743 17.0991C2.29127 16.8517 0.888916 15.2522 0.888916 13.3598V4.02144ZM13.7776 6.27784C13.7776 7.81196 12.5339 9.05562 10.9998 9.05562C9.46567 9.05562 8.22201 7.81196 8.22201 6.27784C8.22201 4.74371 9.46567 3.50006 10.9998 3.50006C12.5339 3.50006 13.7776 4.74371 13.7776 6.27784ZM6 11.9075C6 10.6393 7.32656 9.61123 8.96296 9.61123H13.037C14.6734 9.61123 16 10.6393 16 11.9075C16 12.5416 15.3367 13.0557 14.5185 13.0557H7.48148C6.66328 13.0557 6 12.5416 6 11.9075Z" fill="#BFBDC2"/>
</svg>
