<svg width="26" height="23" viewBox="0 0 26 23" fill="none" xmlns="http://www.w3.org/2000/svg">
<path fill-rule="evenodd" clip-rule="evenodd" d="M11.3784 4.38893C10.9424 4.14963 10.417 4.0716 9.8987 4.21049L2.28889 6.24953C1.22196 6.53542 0.588791 7.63209 0.874675 8.69902L4.14345 20.8982C4.42933 21.9652 5.526 22.5983 6.59293 22.3125L14.2027 20.2734C14.9677 20.0684 15.5097 19.4467 15.6498 18.7179L10.7869 17.4149C9.29318 17.0147 8.40674 15.4793 8.80698 13.9856L11.3784 4.38893Z" fill="#BFBDC2"/>
<path fill-rule="evenodd" clip-rule="evenodd" d="M16.0956 0.251018C15.0287 -0.0348658 13.932 0.598299 13.6461 1.66523L10.3774 13.8644C10.0915 14.9314 10.7246 16.0281 11.7916 16.3139L19.4014 18.353C20.4683 18.6389 21.565 18.0057 21.8509 16.9388L25.1196 4.73955C25.4055 3.67262 24.7724 2.57594 23.7054 2.29006L16.0956 0.251018ZM15.8982 6.7776C16.8133 6.37371 17.7675 6.82007 18.1912 7.64241C18.9692 7.14205 20.0041 7.23552 20.6093 8.03993C21.2145 8.84433 21.0345 9.88816 20.2514 10.446C19.8093 10.7609 18.8264 11.2574 18.0542 11.63L18.0542 11.63C17.688 11.8067 17.5049 11.895 17.3109 11.8993C17.1455 11.9029 16.9665 11.8549 16.8251 11.7691C16.6592 11.6684 16.5448 11.5003 16.316 11.1642C15.8336 10.4554 15.2305 9.53406 15.0051 9.04027C14.6059 8.16562 14.9832 7.18149 15.8982 6.7776Z" fill="#BFBDC2"/>
</svg>
