<svg width="24" height="24" viewBox="0 0 24 24" fill="none" xmlns="http://www.w3.org/2000/svg">
<g clip-path="url(#clip0_251_1239)">
<path d="M7.44664 0.644409H1.50021C1.0261 0.644409 0.643066 1.02744 0.643066 1.50155V7.50155C0.643066 7.73727 0.835924 7.93012 1.07164 7.93012H2.35735C2.59307 7.93012 2.78592 7.73727 2.78592 7.50155V2.78727H7.44664C7.68235 2.78727 7.87521 2.59441 7.87521 2.3587V1.07298C7.87521 0.837266 7.68235 0.644409 7.44664 0.644409ZM22.9288 16.073H21.6431C21.4074 16.073 21.2145 16.2658 21.2145 16.5016V21.2158H16.5538C16.3181 21.2158 16.1252 21.4087 16.1252 21.6444V22.9301C16.1252 23.1658 16.3181 23.3587 16.5538 23.3587H22.5002C22.9743 23.3587 23.3574 22.9757 23.3574 22.5016V16.5016C23.3574 16.2658 23.1645 16.073 22.9288 16.073ZM7.44664 21.2158H2.78592V16.5016C2.78592 16.2658 2.59307 16.073 2.35735 16.073H1.07164C0.835924 16.073 0.643066 16.2658 0.643066 16.5016V22.5016C0.643066 22.9757 1.0261 23.3587 1.50021 23.3587H7.44664C7.68235 23.3587 7.87521 23.1658 7.87521 22.9301V21.6444C7.87521 21.4087 7.68235 21.2158 7.44664 21.2158ZM22.5002 0.644409H16.5538C16.3181 0.644409 16.1252 0.837266 16.1252 1.07298V2.3587C16.1252 2.59441 16.3181 2.78727 16.5538 2.78727H21.2145V7.50155C21.2145 7.73727 21.4074 7.93012 21.6431 7.93012H22.9288C23.1645 7.93012 23.3574 7.73727 23.3574 7.50155V1.50155C23.3574 1.02744 22.9743 0.644409 22.5002 0.644409Z" fill="#353C47"/>
</g>
<defs>
<clipPath id="clip0_251_1239">
<rect width="24" height="24" fill="white"/>
</clipPath>
</defs>
</svg>
