<svg width="24" height="24" viewBox="0 0 24 24" fill="none" xmlns="http://www.w3.org/2000/svg">
<path d="M20.7857 3.42702H19.2857V1.49845C19.2857 1.1422 18.9991 0.855591 18.6428 0.855591H2.78568C2.42943 0.855591 2.14282 1.1422 2.14282 1.49845V8.78416C2.14282 9.14041 2.42943 9.42702 2.78568 9.42702H18.6428C18.9991 9.42702 19.2857 9.14041 19.2857 8.78416V5.14131H20.1428V10.4984H10.741C10.1491 10.4984 9.66961 10.9779 9.66961 11.5699V15.2127H8.49104C8.37318 15.2127 8.27675 15.3092 8.27675 15.427V21.5342C8.27675 21.5502 8.27943 21.569 8.28211 21.5851C8.25961 21.8935 8.30096 22.2033 8.40358 22.4951C8.5062 22.7869 8.66788 23.0544 8.87853 23.2809C9.08918 23.5074 9.34426 23.688 9.62786 23.8114C9.91145 23.9349 10.2175 23.9986 10.5268 23.9984C11.7696 23.9984 12.7768 22.9913 12.7768 21.7484C12.7768 21.6922 12.7741 21.6386 12.7714 21.5851C12.7741 21.569 12.7768 21.5529 12.7768 21.5342V15.427C12.7768 15.3092 12.6803 15.2127 12.5625 15.2127H11.3839V12.2127H20.7857C21.3776 12.2127 21.8571 11.7333 21.8571 11.1413V4.49845C21.8571 3.90648 21.3776 3.42702 20.7857 3.42702ZM17.5714 7.71273H3.85711V2.56988H17.5714V7.71273ZM11.0625 21.7484C11.0625 22.0431 10.8214 22.2842 10.5268 22.2842C10.2321 22.2842 9.99104 22.0431 9.99104 21.7484V16.927H11.0625V21.7484Z" fill="#353C47"/>
<rect width="15.3333" height="6.66667" transform="translate(3.33325 2)" fill="#353C47"/>
<rect width="2.66667" height="6" transform="translate(9.33325 16.6666)" fill="#353C47"/>
</svg>
