<svg width="30" height="30" viewBox="0 0 30 30" fill="none" xmlns="http://www.w3.org/2000/svg">
<g clip-path="url(#clip0_251_1482)">
<path d="M7.32148 14.8259C7.34381 13.8504 7.5447 12.904 7.92193 12.0134C8.30809 11.0982 8.86166 10.279 9.56702 9.57143C10.2724 8.86384 11.0938 8.31027 12.009 7.92411C12.9554 7.52455 13.9599 7.32143 14.9978 7.32143C16.0358 7.32143 17.0402 7.52455 17.9844 7.92411C18.897 8.30948 19.7257 8.86901 20.4242 9.57143C20.6451 9.79241 20.8527 10.0268 21.0447 10.2723L19.7009 11.3214C19.6744 11.342 19.6541 11.3697 19.6425 11.4012C19.631 11.4328 19.6286 11.467 19.6355 11.4998C19.6425 11.5327 19.6587 11.5629 19.6821 11.5871C19.7055 11.6112 19.7353 11.6282 19.7679 11.6362L23.6898 12.596C23.8014 12.6228 23.9108 12.5379 23.9108 12.4241L23.9286 8.38616C23.9286 8.23661 23.7568 8.15179 23.6407 8.24554L22.3818 9.22991C20.6652 7.03348 17.9956 5.625 14.9956 5.625C9.88175 5.625 5.72104 9.72321 5.62506 14.817C5.62446 14.8408 5.62864 14.8645 5.63735 14.8867C5.64605 14.9089 5.65911 14.9291 5.67575 14.9461C5.69239 14.9632 5.71228 14.9767 5.73424 14.986C5.75621 14.9952 5.7798 15 5.80363 15H7.14291C7.24113 15 7.31925 14.9219 7.32148 14.8259ZM24.1965 15H22.8572C22.759 15 22.6809 15.0781 22.6786 15.1741C22.6563 16.1496 22.4554 17.096 22.0782 17.9866C21.692 18.9018 21.1384 19.7232 20.4331 20.4286C19.7211 21.1435 18.8747 21.7103 17.9426 22.0965C17.0105 22.4827 16.0112 22.6805 15.0023 22.6786C13.9937 22.6805 12.9947 22.4826 12.063 22.0964C11.1313 21.7103 10.2852 21.1434 9.57372 20.4286C9.35273 20.2076 9.14515 19.9732 8.95318 19.7277L10.2969 18.6786C10.3235 18.658 10.3438 18.6304 10.3553 18.5988C10.3669 18.5672 10.3693 18.533 10.3623 18.5002C10.3553 18.4673 10.3392 18.4371 10.3158 18.4129C10.2924 18.3888 10.2626 18.3718 10.23 18.3638L6.30809 17.404C6.19648 17.3772 6.08711 17.4621 6.08711 17.5759L6.07148 21.6161C6.07148 21.7656 6.24336 21.8504 6.35943 21.7567L7.61836 20.7723C9.33488 22.9665 12.0045 24.375 15.0045 24.375C20.1206 24.375 24.2791 20.2746 24.3751 15.183C24.3757 15.1592 24.3715 15.1355 24.3628 15.1133C24.3541 15.0911 24.341 15.0709 24.3244 15.0539C24.3077 15.0368 24.2878 15.0233 24.2659 15.014C24.2439 15.0048 24.2203 15 24.1965 15V15Z" fill="#353C47"/>
</g>
<circle cx="15" cy="15" r="14.375" stroke="#353C47" stroke-width="1.25"/>
<defs>
<clipPath id="clip0_251_1482">
<rect width="20" height="20" fill="white" transform="translate(5 5)"/>
</clipPath>
</defs>
</svg>
