<svg width="32" height="32" viewBox="0 0 32 32" fill="none" xmlns="http://www.w3.org/2000/svg">
<g filter="url(#filter0_d_251_938)">
<mask id="path-1-inside-1_251_938" fill="white">
<path fill-rule="evenodd" clip-rule="evenodd" d="M16.0002 22.6667C21.8912 22.6667 26.6668 17.8911 26.6668 12C26.6668 6.109 21.8912 1.33337 16.0002 1.33337C10.1091 1.33337 5.3335 6.109 5.3335 12C5.3335 17.8911 10.1091 22.6667 16.0002 22.6667ZM16.1267 6.66671H14.9668C14.8008 6.66671 14.6668 6.80064 14.6668 6.96671V13.6096C14.6668 13.706 14.7124 13.7944 14.79 13.8506L18.7784 16.7596C18.9124 16.856 19.0999 16.8292 19.1963 16.6953L19.8847 15.7551V15.7524C19.9811 15.6185 19.9517 15.431 19.8177 15.3346L16.424 12.881V6.96671C16.4267 6.80064 16.29 6.66671 16.1267 6.66671Z"/>
</mask>
<path fill-rule="evenodd" clip-rule="evenodd" d="M16.0002 22.6667C21.8912 22.6667 26.6668 17.8911 26.6668 12C26.6668 6.109 21.8912 1.33337 16.0002 1.33337C10.1091 1.33337 5.3335 6.109 5.3335 12C5.3335 17.8911 10.1091 22.6667 16.0002 22.6667ZM16.1267 6.66671H14.9668C14.8008 6.66671 14.6668 6.80064 14.6668 6.96671V13.6096C14.6668 13.706 14.7124 13.7944 14.79 13.8506L18.7784 16.7596C18.9124 16.856 19.0999 16.8292 19.1963 16.6953L19.8847 15.7551V15.7524C19.9811 15.6185 19.9517 15.431 19.8177 15.3346L16.424 12.881V6.96671C16.4267 6.80064 16.29 6.66671 16.1267 6.66671Z" fill="#353C47"/>
<path d="M14.79 13.8506L15.7722 12.5041L15.7676 12.5007L14.79 13.8506ZM18.7784 16.7596L17.7963 18.1062L17.8046 18.1121L18.7784 16.7596ZM19.1963 16.6953L17.8515 15.7106L17.8437 15.7214L19.1963 16.6953ZM19.8847 15.7551L21.2294 16.7397L21.5514 16.3V15.7551H19.8847ZM19.8847 15.7524L18.5321 14.7786L18.218 15.2149V15.7524H19.8847ZM19.8177 15.3346L18.8412 16.6852L18.8439 16.6871L19.8177 15.3346ZM16.424 12.881H14.7573V13.7327L15.4475 14.2316L16.424 12.881ZM16.424 6.96671L14.7575 6.93983L14.7573 6.95327V6.96671H16.424ZM25.0002 12C25.0002 16.9706 20.9707 21 16.0002 21V24.3334C22.8117 24.3334 28.3335 18.8116 28.3335 12H25.0002ZM16.0002 3.00004C20.9707 3.00004 25.0002 7.02948 25.0002 12H28.3335C28.3335 5.18853 22.8117 -0.333293 16.0002 -0.333293V3.00004ZM7.00016 12C7.00016 7.02948 11.0296 3.00004 16.0002 3.00004V-0.333293C9.18865 -0.333293 3.66683 5.18853 3.66683 12H7.00016ZM16.0002 21C11.0296 21 7.00016 16.9706 7.00016 12H3.66683C3.66683 18.8116 9.18865 24.3334 16.0002 24.3334V21ZM14.9668 8.33337H16.1267V5.00004H14.9668V8.33337ZM16.3335 6.96671C16.3335 7.72111 15.7212 8.33337 14.9668 8.33337V5.00004C13.8803 5.00004 13.0002 5.88017 13.0002 6.96671H16.3335ZM16.3335 13.6096V6.96671H13.0002V13.6096H16.3335ZM15.7676 12.5007C16.1201 12.756 16.3335 13.1683 16.3335 13.6096H13.0002C13.0002 14.2437 13.3047 14.8328 13.8125 15.2005L15.7676 12.5007ZM19.7606 15.413L15.7722 12.5041L13.8079 15.1972L17.7963 18.1061L19.7606 15.413ZM17.8437 15.7214C18.3071 15.0778 19.1701 14.9879 19.7523 15.407L17.8046 18.1121C18.6546 18.7241 19.8926 18.5806 20.5489 17.6691L17.8437 15.7214ZM18.5399 14.7705L17.8516 15.7107L20.541 17.6799L21.2294 16.7397L18.5399 14.7705ZM18.218 15.7524V15.7551H21.5514V15.7524H18.218ZM18.8439 16.6871C18.2221 16.2395 18.097 15.3829 18.5321 14.7786L21.2373 16.7263C21.8652 15.8541 21.6812 14.6225 20.7916 13.982L18.8439 16.6871ZM15.4475 14.2316L18.8412 16.6852L20.7942 13.9839L17.4005 11.5303L15.4475 14.2316ZM14.7573 6.96671V12.881H18.0906V6.96671H14.7573ZM16.1267 8.33337C15.3847 8.33337 14.7448 7.73007 14.7575 6.93983L18.0904 6.99359C18.1085 5.87121 17.1954 5.00004 16.1267 5.00004V8.33337Z" fill="#353C47" mask="url(#path-1-inside-1_251_938)"/>
</g>
<defs>
<filter id="filter0_d_251_938" x="0" y="0" width="32" height="32" filterUnits="userSpaceOnUse" color-interpolation-filters="sRGB">
<feFlood flood-opacity="0" result="BackgroundImageFix"/>
<feColorMatrix in="SourceAlpha" type="matrix" values="0 0 0 0 0 0 0 0 0 0 0 0 0 0 0 0 0 0 127 0" result="hardAlpha"/>
<feOffset dy="4"/>
<feGaussianBlur stdDeviation="2"/>
<feComposite in2="hardAlpha" operator="out"/>
<feColorMatrix type="matrix" values="0 0 0 0 0 0 0 0 0 0 0 0 0 0 0 0 0 0 0.25 0"/>
<feBlend mode="normal" in2="BackgroundImageFix" result="effect1_dropShadow_251_938"/>
<feBlend mode="normal" in="SourceGraphic" in2="effect1_dropShadow_251_938" result="shape"/>
</filter>
</defs>
</svg>
