<svg width="165" height="103" viewBox="0 0 165 103" fill="none" xmlns="http://www.w3.org/2000/svg">
<path d="M145.246 41.4785C149.478 41.4785 153.988 41.3145 158.777 40.9865C159.269 41.0193 159.646 41.1833 159.909 41.4785C160.204 41.7737 160.352 42.1345 160.352 42.561C160.352 43.0202 160.204 43.3974 159.909 43.6926C159.646 44.0207 159.269 44.2011 158.777 44.2339C154.414 44.5291 149.822 44.6767 145 44.6767C141.031 44.6767 137.472 44.5947 134.323 44.4307C133.273 44.3979 132.322 44.1519 131.469 43.6926C130.616 43.2662 129.977 42.6266 129.55 41.7737C128.829 39.8712 128.468 37.5094 128.468 34.6884C128.468 32.9827 128.484 31.7034 128.517 30.8505C128.55 30.3257 128.73 29.9321 129.058 29.6697C129.386 29.3744 129.763 29.2268 130.19 29.2268C130.616 29.2268 130.994 29.3744 131.322 29.6697C131.65 29.9321 131.814 30.3257 131.814 30.8505C131.715 31.8346 131.666 32.5399 131.666 32.9663C131.666 33.3271 131.682 33.8356 131.715 34.4916C131.781 35.1476 131.814 35.6725 131.814 36.0661C131.814 36.1317 131.814 36.2301 131.814 36.3613C131.814 37.2142 131.83 37.8538 131.863 38.2803C131.928 38.7395 132.06 39.2479 132.256 39.8056C132.453 40.3632 132.732 40.7404 133.093 40.9372C133.487 41.1013 134.241 41.2161 135.356 41.2817C138.669 41.4129 141.966 41.4785 145.246 41.4785ZM144.754 3.19822C143.048 3.19822 140.998 3.23102 138.604 3.29663C136.242 3.36223 134.208 3.44424 132.502 3.54265C130.83 3.60825 129.977 3.64105 129.944 3.64105C129.714 3.64105 129.452 3.54265 129.157 3.34583C128.894 3.14902 128.763 2.96861 128.763 2.80459V1.32849C128.763 0.902063 129.435 0.623243 130.78 0.492034C132.158 0.360825 135.832 0.196814 141.802 0H141.851C146.903 0 151.61 0.180413 155.973 0.541238C156.694 0.606842 157.268 0.688848 157.695 0.787255C158.449 1.01687 159.04 1.5089 159.466 2.26336C159.925 3.01781 160.155 3.70666 160.155 4.3299C160.155 4.46111 160.089 4.93674 159.958 5.7568C159.958 5.85521 159.892 6.46205 159.761 7.57733C159.663 8.6926 159.532 9.95549 159.368 11.366C159.236 12.7765 159.122 13.859 159.023 14.6134C158.925 15.4991 158.712 16.8112 158.383 18.5497C158.318 18.9761 158.252 19.3697 158.187 19.7306C161.27 19.6978 162.828 19.6814 162.861 19.6814C163.255 19.6814 163.599 19.7798 163.894 19.9766C164.222 20.1406 164.386 20.321 164.386 20.5178V21.9939C164.386 22.2235 164.222 22.4368 163.894 22.6336C163.566 22.7976 163.205 22.8796 162.812 22.8796C162.713 22.8796 150.937 22.9288 127.484 23.0272H126.45C125.893 23.0272 125.434 22.9452 125.073 22.7812C124.712 22.6172 124.532 22.4368 124.532 22.2399V20.7638C124.532 20.5014 124.696 20.2882 125.024 20.1242C125.352 19.9274 125.696 19.829 126.057 19.829H126.893C127.91 19.829 131.387 19.829 137.324 19.829C143.262 19.7962 148.986 19.7634 154.496 19.7306C154.562 19.7306 154.628 19.7306 154.693 19.7306C154.693 19.665 154.71 19.583 154.742 19.4846C154.906 18.8613 155.152 17.4344 155.48 15.2039C155.808 12.9405 156.071 10.8248 156.268 8.85662C156.366 7.93815 156.481 7.10169 156.612 6.34724C156.842 5.16636 156.957 4.42831 156.957 4.13309H156.907C156.743 3.90347 156.481 3.78866 156.12 3.78866C152.315 3.39504 148.526 3.19822 144.754 3.19822Z" fill="#9462E4"/>
<path d="M87.2853 6.00282C87.3509 4.55952 87.6461 3.52624 88.171 2.903C88.7286 2.24695 89.7619 1.93533 91.2708 1.96814C100.816 1.5089 109.41 1.4925 117.053 1.91893C117.709 1.95173 118.169 2.21415 118.431 2.70619C118.693 3.16542 118.693 3.64105 118.431 4.13309C118.169 4.59232 117.709 4.82193 117.053 4.82193C112.166 4.49391 106.311 4.41191 99.4877 4.57592C98.9957 4.57592 98.2741 4.60872 97.3228 4.67432C96.3715 4.70713 95.6499 4.73993 95.1579 4.77273C95.0594 4.77273 94.387 4.75633 93.1405 4.72353C91.9268 4.69073 91.2872 4.73993 91.2216 4.87114C90.9592 4.96954 90.7459 5.11715 90.5819 5.31397C90.4507 5.47798 90.3687 5.67479 90.3359 5.90441C90.3359 6.10122 90.3359 6.33084 90.3359 6.59326C90.3359 6.85568 90.3359 7.10169 90.3359 7.33131C90.2703 8.28257 90.2375 9.67667 90.2375 11.5136C90.2375 11.8744 90.2375 12.4485 90.2375 13.2357C90.2703 13.9902 90.2867 14.5478 90.2867 14.9086C90.2867 15.0398 90.2211 15.5319 90.0899 16.3847C89.9915 17.2048 89.9915 17.8772 90.0899 18.4021C90.1883 18.9269 90.4343 19.3041 90.8279 19.5338C91.1888 19.665 91.6316 19.747 92.1564 19.7798C92.6813 19.7798 93.2553 19.747 93.8786 19.6814C94.5346 19.583 95.0102 19.5502 95.3055 19.583C98.0281 19.6486 100.062 19.6814 101.407 19.6814C105.54 19.747 109.476 19.6158 113.216 19.2877C114.79 19.1237 115.954 18.9761 116.709 18.8449C117.726 18.6809 118.382 19.0089 118.677 19.829C118.808 20.1898 118.759 20.5506 118.529 20.9115C118.3 21.2723 117.988 21.5019 117.595 21.6003C113.855 22.1907 109.64 22.5188 104.949 22.5844C100.259 22.65 96.0107 22.568 92.2057 22.3384C90.3359 22.4368 88.991 22.1743 88.171 21.5511C87.3509 20.9279 86.9901 19.7962 87.0885 18.1561C87.0885 17.3688 87.0721 16.2207 87.0393 14.7118C87.0393 13.1701 87.0393 12.0056 87.0393 11.2184C87.0393 9.25024 87.1213 7.51172 87.2853 6.00282ZM121.285 29.6697C119.415 29.6697 116.627 29.6861 112.92 29.7189C109.214 29.7517 106.425 29.7681 104.556 29.7681V42.9546C104.556 43.381 104.392 43.7418 104.064 44.0371C103.768 44.3323 103.391 44.4963 102.932 44.5291C102.506 44.5619 102.128 44.4143 101.8 44.0863C101.505 43.7582 101.357 43.381 101.357 42.9546V29.8665C99.4877 29.8665 96.6996 29.8829 92.9929 29.9157C89.2862 29.9157 86.498 29.9157 84.6283 29.9157C83.9723 29.8829 83.4966 29.6041 83.2014 29.0792C82.939 28.5544 82.939 28.0295 83.2014 27.5047C83.4966 26.9799 83.9723 26.7175 84.6283 26.7175C88.6958 26.6847 94.797 26.6355 102.932 26.5698C111.1 26.5042 117.217 26.4714 121.285 26.4714C121.941 26.4714 122.4 26.7339 122.663 27.2587C122.925 27.7835 122.925 28.3084 122.663 28.8332C122.4 29.358 121.941 29.6369 121.285 29.6697Z" fill="#9462E4"/>
<path d="M62.2416 41.4785C66.4731 41.4785 70.9834 41.3145 75.7725 40.9865C76.2645 41.0193 76.6418 41.1833 76.9042 41.4785C77.1994 41.7737 77.347 42.1345 77.347 42.561C77.347 43.0202 77.1994 43.3974 76.9042 43.6926C76.6418 44.0207 76.2645 44.2011 75.7725 44.2339C71.4098 44.5291 66.8175 44.6767 61.9955 44.6767C58.0265 44.6767 54.4674 44.5947 51.3184 44.4307C50.2687 44.3979 49.3175 44.1519 48.4646 43.6926C47.6117 43.2662 46.9721 42.6266 46.5457 41.7737C45.824 39.8712 45.4632 37.5094 45.4632 34.6884C45.4632 32.9827 45.4796 31.7034 45.5124 30.8505C45.5452 30.3257 45.7256 29.9321 46.0536 29.6697C46.3816 29.3744 46.7589 29.2268 47.1853 29.2268C47.6117 29.2268 47.989 29.3744 48.317 29.6697C48.645 29.9321 48.809 30.3257 48.809 30.8505C48.7106 31.8346 48.6614 32.5399 48.6614 32.9663C48.6614 33.3271 48.6778 33.8356 48.7106 34.4916C48.7762 35.1476 48.809 35.6725 48.809 36.0661C48.809 36.1317 48.809 36.2301 48.809 36.3613C48.809 37.2142 48.8254 37.8538 48.8582 38.2803C48.9238 38.7395 49.055 39.2479 49.2518 39.8056C49.4487 40.3632 49.7275 40.7404 50.0883 40.9372C50.4819 41.1013 51.2364 41.2161 52.3517 41.2817C55.6647 41.4129 58.9613 41.4785 62.2416 41.4785ZM61.7495 3.19822C60.0438 3.19822 57.9937 3.23102 55.5991 3.29663C53.2373 3.36223 51.2036 3.44424 49.4979 3.54265C47.8249 3.60825 46.9721 3.64105 46.9393 3.64105C46.7097 3.64105 46.4473 3.54265 46.152 3.34583C45.8896 3.14902 45.7584 2.96861 45.7584 2.80459V1.32849C45.7584 0.902063 46.4309 0.623243 47.7757 0.492034C49.1534 0.360825 52.8273 0.196814 58.7973 0H58.8465C63.8981 0 68.6052 0.180413 72.9679 0.541238C73.6896 0.606842 74.2636 0.688848 74.69 0.787255C75.4445 1.01687 76.0349 1.5089 76.4613 2.26336C76.9206 3.01781 77.1502 3.70666 77.1502 4.3299C77.1502 4.46111 77.0846 4.93674 76.9534 5.7568C76.9534 5.85521 76.8878 6.46205 76.7566 7.57733C76.6581 8.6926 76.5269 9.95549 76.3629 11.366C76.2317 12.7765 76.1169 13.859 76.0185 14.6134C75.9201 15.4991 75.7069 16.8112 75.3789 18.5497C75.3133 18.9761 75.2477 19.3697 75.1821 19.7306C78.2655 19.6978 79.8236 19.6814 79.8564 19.6814C80.25 19.6814 80.5944 19.7798 80.8897 19.9766C81.2177 20.1406 81.3817 20.321 81.3817 20.5178V21.9939C81.3817 22.2235 81.2177 22.4368 80.8897 22.6336C80.5616 22.7976 80.2008 22.8796 79.8072 22.8796C79.7088 22.8796 67.9327 22.9288 44.4791 23.0272H43.4458C42.8882 23.0272 42.429 22.9452 42.0681 22.7812C41.7073 22.6172 41.5269 22.4368 41.5269 22.2399V20.7638C41.5269 20.5014 41.6909 20.2882 42.0189 20.1242C42.347 19.9274 42.6914 19.829 43.0522 19.829H43.8887C44.9055 19.829 48.3826 19.829 54.3198 19.829C60.257 19.7962 65.981 19.7634 71.4918 19.7306C71.5574 19.7306 71.623 19.7306 71.6886 19.7306C71.6886 19.665 71.705 19.583 71.7378 19.4846C71.9018 18.8613 72.1478 17.4344 72.4759 15.2039C72.8039 12.9405 73.0663 10.8248 73.2631 8.85662C73.3615 7.93815 73.4763 7.10169 73.6075 6.34724C73.8372 5.16636 73.952 4.42831 73.952 4.13309H73.9028C73.7388 3.90347 73.4763 3.78866 73.1155 3.78866C69.3104 3.39504 65.5218 3.19822 61.7495 3.19822Z" fill="#9462E4"/>
<path d="M4.2807 6.00282C4.3463 4.55952 4.64152 3.52624 5.16636 2.903C5.724 2.24695 6.75727 1.93533 8.26618 1.96814C17.8116 1.5089 26.4058 1.4925 34.0488 1.91893C34.7048 1.95173 35.164 2.21415 35.4265 2.70619C35.6889 3.16542 35.6889 3.64105 35.4265 4.13309C35.164 4.59232 34.7048 4.82193 34.0488 4.82193C29.1612 4.49391 23.306 4.41191 16.4831 4.57592C15.9911 4.57592 15.2695 4.60872 14.3182 4.67432C13.3669 4.70713 12.6453 4.73993 12.1532 4.77273C12.0548 4.77273 11.3824 4.75633 10.1359 4.72353C8.92222 4.69073 8.28258 4.73993 8.21697 4.87114C7.95455 4.96954 7.74134 5.11715 7.57733 5.31397C7.44612 5.47798 7.36411 5.67479 7.33131 5.90441C7.33131 6.10122 7.33131 6.33084 7.33131 6.59326C7.33131 6.85568 7.33131 7.10169 7.33131 7.33131C7.26571 8.28257 7.2329 9.67667 7.2329 11.5136C7.2329 11.8744 7.2329 12.4485 7.2329 13.2357C7.26571 13.9902 7.28211 14.5478 7.28211 14.9086C7.28211 15.0398 7.2165 15.5319 7.08529 16.3847C6.98689 17.2048 6.98689 17.8772 7.08529 18.4021C7.1837 18.9269 7.42972 19.3041 7.82334 19.5338C8.18417 19.665 8.627 19.747 9.15184 19.7798C9.67667 19.7798 10.2507 19.747 10.874 19.6814C11.53 19.583 12.0056 19.5502 12.3009 19.583C15.0234 19.6486 17.0572 19.6814 18.4021 19.6814C22.5352 19.747 26.4714 19.6158 30.2109 19.2877C31.7854 19.1237 32.9499 18.9761 33.7043 18.8449C34.7212 18.6809 35.3773 19.0089 35.6725 19.829C35.8037 20.1898 35.7545 20.5506 35.5249 20.9115C35.2953 21.2723 34.9836 21.5019 34.59 21.6003C30.8505 22.1907 26.6355 22.5188 21.9447 22.5844C17.254 22.65 13.0061 22.568 9.20104 22.3384C7.33131 22.4368 5.98642 22.1743 5.16636 21.5511C4.3463 20.9279 3.98548 19.7962 4.08388 18.1561C4.08388 17.3688 4.06748 16.2207 4.03468 14.7118C4.03468 13.1701 4.03468 12.0056 4.03468 11.2184C4.03468 9.25024 4.11669 7.51172 4.2807 6.00282ZM38.2803 29.6697C36.4105 29.6697 33.6223 29.6861 29.9157 29.7189C26.209 29.7517 23.4208 29.7681 21.5511 29.7681V42.9546C21.5511 43.381 21.3871 43.7418 21.0591 44.0371C20.7638 44.3323 20.3866 44.4963 19.9274 44.5291C19.501 44.5619 19.1237 44.4143 18.7957 44.0863C18.5005 43.7582 18.3529 43.381 18.3529 42.9546V29.8665C16.4831 29.8665 13.695 29.8829 9.98829 29.9157C6.28164 29.9157 3.49344 29.9157 1.62371 29.9157C0.967667 29.8829 0.492034 29.6041 0.196814 29.0792C-0.0656046 28.5544 -0.0656046 28.0295 0.196814 27.5047C0.492034 26.9799 0.967667 26.7175 1.62371 26.7175C5.6912 26.6847 11.7924 26.6355 19.9274 26.5698C28.0952 26.5042 34.2128 26.4714 38.2803 26.4714C38.9363 26.4714 39.3955 26.7339 39.658 27.2587C39.9204 27.7835 39.9204 28.3084 39.658 28.8332C39.3955 29.358 38.9363 29.6369 38.2803 29.6697Z" fill="#9462E4"/>
<path d="M108.273 100.117C107.814 100.117 107.437 99.9529 107.142 99.6249C106.846 99.3297 106.682 98.9525 106.65 98.4932C106.617 98.034 106.781 97.6404 107.142 97.3123C107.535 97.0171 107.945 96.8859 108.372 96.9187C109.881 96.9187 112.16 96.9023 115.211 96.8695C118.294 96.8367 120.59 96.8203 122.099 96.8203C124.199 96.8203 127.348 96.8039 131.546 96.7711C135.745 96.7383 138.894 96.7219 140.994 96.7219C141.42 96.7219 142.06 96.7055 142.912 96.6727C143.798 96.6727 144.471 96.6727 144.93 96.6727C145.356 96.6727 145.717 96.8367 146.012 97.1647C146.307 97.4928 146.471 97.87 146.504 98.2964C146.537 98.7556 146.373 99.1493 146.012 99.4773C145.651 99.8053 145.241 99.9529 144.782 99.9201C141.764 99.9529 137.221 99.9693 131.153 99.9693C129.021 100.002 125.855 100.019 121.657 100.019C117.458 100.051 114.309 100.084 112.21 100.117H108.273Z" fill="#9462E4"/>
<path d="M72.6015 62.5256C72.3719 70.6278 72.3719 81.4033 72.6015 94.8522H78.3583C78.5551 84.6179 78.5879 75.0069 78.4567 66.019C78.4567 64.4773 78.4403 63.3129 78.4075 62.5256H72.6015ZM66.6971 59.3274H70.0921C71.7651 59.3274 74.2744 59.3274 77.6203 59.3274C80.9661 59.2946 83.4919 59.2782 85.1976 59.2782C85.624 59.2782 85.9849 59.4422 86.2801 59.7702C86.5753 60.0654 86.7393 60.4263 86.7721 60.8527C86.8049 61.2791 86.6573 61.6563 86.3293 61.9844C86.0013 62.3124 85.624 62.4764 85.1976 62.4764C84.804 62.4764 84.1971 62.4928 83.3771 62.5256C82.5898 62.5256 81.9994 62.5256 81.6057 62.5256C81.8026 69.7093 81.7862 80.4848 81.5565 94.8522H85.1976C85.8536 94.885 86.3129 95.1639 86.5753 95.6887C86.8377 96.2135 86.8377 96.7384 86.5753 97.2632C86.3129 97.7881 85.8536 98.0505 85.1976 98.0505H66.6971C66.2707 98.0505 65.9099 97.9029 65.6146 97.6076C65.3194 97.3124 65.1554 96.9352 65.1226 96.476C65.1554 95.9511 65.3358 95.5575 65.6638 95.2951C66.0247 95.0327 66.3855 94.9015 66.7463 94.9015C67.1071 94.8686 67.5828 94.8686 68.1732 94.9015C68.7965 94.9015 69.2229 94.885 69.4525 94.8522C69.1901 80.4848 69.1573 69.7093 69.3541 62.5256H66.6971C66.0411 62.4928 65.5818 62.214 65.3194 61.6891C65.057 61.1643 65.057 60.6559 65.3194 60.1638C65.5818 59.639 66.0411 59.3602 66.6971 59.3274ZM97.3016 98.9361C97.2688 96.8368 97.236 93.6714 97.2032 89.4399C97.2032 85.2084 97.1868 82.043 97.154 79.9436C94.5627 79.9436 92.4141 79.8944 90.7084 79.796C90.2491 79.7632 89.8719 79.6156 89.5767 79.3532C89.2815 79.0579 89.1339 78.6807 89.1339 78.2215C89.1011 77.7951 89.2487 77.4178 89.5767 77.0898C89.9047 76.729 90.2819 76.565 90.7084 76.5978C92.4141 76.6962 94.5462 76.7454 97.1048 76.7454C97.1048 75.3349 97.0884 73.2027 97.0556 70.3489C97.0556 67.4951 97.0556 65.363 97.0556 63.9525V59.6718C97.0556 59.2454 97.2032 58.8845 97.4985 58.5893C97.8265 58.2613 98.2037 58.0809 98.6301 58.0481C99.0894 58.0153 99.483 58.1957 99.811 58.5893C100.139 58.9501 100.287 59.3602 100.254 59.8194C100.254 60.377 100.254 61.2299 100.254 62.378C100.287 63.4933 100.303 64.3133 100.303 64.8382C100.336 67.1343 100.352 70.5786 100.352 75.1709C100.385 79.7632 100.418 83.2074 100.451 85.5036C100.451 87.0125 100.451 89.2595 100.451 92.2445C100.483 95.1967 100.5 97.4272 100.5 98.9361C100.467 99.5922 100.188 100.051 99.6634 100.314C99.1386 100.609 98.6137 100.609 98.0889 100.314C97.5641 100.051 97.3016 99.5922 97.3016 98.9361Z" fill="#9462E4"/>
<path d="M58.1856 89.1938C58.1856 89.5218 58.1692 91.1127 58.1364 93.9665C58.1036 96.7875 58.0872 98.362 58.0872 98.69C58.0872 99.4117 57.874 100.068 57.4476 100.658C57.054 101.281 56.5291 101.642 55.8731 101.741C51.5104 102.036 46.8361 102.183 41.8501 102.183C38.0122 102.183 33.912 102.085 29.5493 101.888C28.3684 101.823 27.4499 101.56 26.7939 101.101C26.1706 100.642 25.859 99.8709 25.859 98.7885L25.9082 98.69C25.9082 98.6244 25.9082 98.5752 25.9082 98.5424C25.9082 98.0504 25.8918 97.3123 25.859 96.3283C25.859 95.3442 25.859 94.6062 25.859 94.1141C25.859 91.7852 25.941 89.571 26.105 87.4717C26.1378 86.914 26.433 86.4384 26.9907 86.0448C27.5483 85.6183 28.1388 85.4051 28.762 85.4051C31.747 85.3723 36.3885 85.3559 42.6866 85.3559C47.6397 85.3559 51.3628 85.3887 53.8557 85.4543H54.2002C55.4795 85.4543 56.4635 85.7824 57.1524 86.4384C57.8412 87.0944 58.1856 88.0129 58.1856 89.1938ZM29.0572 98.1488C29.0572 98.5752 29.3524 98.7885 29.9429 98.7885C30.1725 98.7885 30.5005 98.7721 30.927 98.7393C31.3534 98.7393 31.6814 98.7393 31.911 98.7393C32.8623 98.7393 34.3384 98.7721 36.3393 98.8377C38.3403 98.9033 39.8 98.9361 40.7184 98.9361H43.0802C50.6903 98.8377 54.561 98.7556 54.6922 98.69C54.9546 98.6244 55.0858 97.2303 55.0858 94.5078C55.053 94.1469 55.0366 93.8845 55.0366 93.7205C55.0366 93.1957 55.053 92.556 55.0858 91.8016C55.1186 91.0471 55.135 90.4731 55.135 90.0794C55.135 89.6858 55.1022 89.4234 55.0366 89.2922C54.9054 88.8658 54.479 88.6525 53.7573 88.6525C53.4621 88.6525 53.0029 88.6525 52.3796 88.6525C51.7892 88.6197 51.3628 88.6033 51.1003 88.6033C49.0994 88.5705 46.1144 88.5541 42.1453 88.5541C40.8004 88.5541 38.7339 88.5705 35.9457 88.6033C33.1575 88.6033 31.1074 88.6033 29.7953 88.6033C29.2376 88.6033 28.9588 89.079 28.9588 90.0302C28.9588 90.2271 28.9752 91.5883 29.008 94.1141C29.0408 96.6071 29.0572 97.952 29.0572 98.1488ZM54.643 68.5284C54.5774 63.0504 54.5446 60.0982 54.5446 59.6717V58.2448C54.5774 57.9496 54.7414 57.72 55.0366 57.556C55.3647 57.392 55.7419 57.31 56.1683 57.31C56.5947 57.31 56.972 57.392 57.3 57.556C57.628 57.72 57.792 57.9496 57.792 58.2448C57.792 59.2617 57.8084 61.7711 57.8412 65.773C57.874 69.742 57.9068 73.5143 57.9396 77.0898L57.9888 82.4529V83.1418C57.956 83.765 57.4312 84.0766 56.4143 84.0766C55.9879 84.0766 55.5943 83.9946 55.2334 83.8306C54.9054 83.6666 54.7414 83.437 54.7414 83.1418L54.643 71.7266C52.7077 71.7266 51.3464 71.7102 50.5591 71.6774L50.7067 81.8625V83.1418C50.6411 83.765 50.0999 84.0766 49.083 84.0766C48.6566 84.0766 48.2794 83.9946 47.9513 83.8306C47.6561 83.6666 47.5085 83.437 47.5085 83.1418C47.3445 68.7744 47.2625 60.705 47.2625 58.9337V58.2448C47.2953 57.9496 47.4593 57.72 47.7545 57.556C48.0497 57.392 48.4106 57.31 48.837 57.31C49.2634 57.31 49.6407 57.392 49.9687 57.556C50.2967 57.72 50.4607 57.9496 50.4607 58.2448V59.3765C50.4607 59.6717 50.4607 60.1966 50.4607 60.951C50.4607 61.6727 50.4607 62.4599 50.4607 63.3128C50.4935 64.1328 50.5099 64.9365 50.5099 65.7238C50.5427 66.511 50.5591 67.1671 50.5591 67.6919V68.4791C51.4776 68.5119 52.8389 68.5284 54.643 68.5284ZM28.6636 61.3939C28.0403 61.3939 27.1055 61.4103 25.859 61.4431C24.6125 61.4431 23.6612 61.4431 23.0052 61.4431C22.8084 61.4431 22.4968 61.4431 22.0703 61.4431C21.6767 61.4103 21.3815 61.3939 21.1847 61.3939C20.7582 61.3939 20.4138 61.115 20.1514 60.5574C19.889 59.967 19.7578 59.4913 19.7578 59.1305C19.7578 58.9009 19.8726 58.6877 20.1022 58.4909C20.3646 58.294 20.7254 58.1956 21.1847 58.1956H31.7634C32.5507 58.1956 33.2231 58.3432 33.7808 58.6385C34.3384 58.9009 34.7484 59.2781 35.0108 59.7701C35.2733 60.2294 35.4537 60.6886 35.5521 61.1478C35.6833 61.5743 35.7489 62.0335 35.7489 62.5255C35.7489 62.8864 35.6997 63.444 35.6013 64.1984C35.5357 64.9201 35.5029 65.3301 35.5029 65.4285C34.9452 68.8728 34.24 71.9398 33.3871 74.6296C32.5343 77.2866 31.255 79.7959 29.5493 82.1577C29.3196 82.4529 28.9096 82.6005 28.3192 82.6005C28.024 82.6005 27.7451 82.5677 27.4827 82.5021C27.2859 82.4037 27.1219 82.1085 26.9907 81.6165C26.8923 81.1244 26.8431 80.7308 26.8431 80.4356C26.8431 80.206 27.0235 79.8615 27.3843 79.4023C27.7451 78.9431 27.9419 78.6314 27.9747 78.4674C29.2868 76.2697 30.3365 73.7603 31.1238 70.9393H29.7461C29.3524 70.9393 28.8112 70.9393 28.1224 70.9393C27.4663 70.9393 26.7939 70.9393 26.105 70.9393C25.4162 70.9065 24.7437 70.8901 24.0877 70.8901C23.4316 70.8901 22.8904 70.8901 22.464 70.8901H21.8735C21.4471 70.8573 21.1027 70.5621 20.8403 70.0045C20.5778 69.4468 20.4466 68.9876 20.4466 68.6268C20.4466 68.3643 20.5614 68.1511 20.791 67.9871C21.0535 67.7903 21.4143 67.6919 21.8735 67.6919H31.911C32.4359 65.3957 32.7475 63.3128 32.8459 61.4431C32.8459 61.4759 32.8295 61.4923 32.7967 61.4923H32.6983C31.7798 61.4267 30.4349 61.3939 28.6636 61.3939Z" fill="#9462E4"/>
<path fill-rule="evenodd" clip-rule="evenodd" d="M124.806 59.2977C125.471 59.3053 126.064 59.717 126.303 60.3372L136.287 86.2121L138.51 81.3609C138.775 80.7835 139.352 80.4134 139.987 80.4134H146.368C147.265 80.4134 147.992 81.1406 147.992 82.0377C147.992 82.9347 147.265 83.662 146.368 83.662H141.029L137.635 91.0679C137.362 91.6618 136.761 92.0348 136.108 92.0147C135.455 91.9946 134.878 91.5853 134.643 90.9758L124.738 65.3056L117.588 82.6565C117.337 83.2649 116.744 83.662 116.086 83.662H109.705C108.808 83.662 108.081 82.9347 108.081 82.0377C108.081 81.1406 108.808 80.4134 109.705 80.4134H114.999L123.286 60.303C123.539 59.6884 124.142 59.2902 124.806 59.2977Z" fill="#9462E4"/>
</svg>
