<svg width="214" height="131" viewBox="0 0 214 131" fill="none" xmlns="http://www.w3.org/2000/svg">
<rect x="0.396296" y="0.396296" width="213.207" height="62.2074" rx="9.11481" stroke="#EDECEE" stroke-width="0.792593"/>
<path d="M190.222 27.615L194.185 31.578L190.222 35.5409" stroke="#262428" stroke-width="1.58519"/>
<path d="M25.9081 18.3882V29.6579H24.3848V24.0231H23.3321V29.113H21.846V18.574H23.3321V22.7475H24.3848V18.3882H25.9081ZM18.2298 19.639V25.5216C19.1339 25.503 20.1246 25.4225 21.2144 25.212L21.3754 26.5742C19.8646 26.8343 18.5766 26.9086 17.4125 26.9086H16.6446V19.639H18.2298ZM40.3853 27.0324V28.3452H30.0692V27.0324H40.3853ZM39.5184 19.379V20.6422H37.9332V24.0602H39.4688V25.2986H30.9237V24.0602H32.4346V20.6422H30.8742V19.379H39.5184ZM34.0198 24.0602H36.3728V20.6422H34.0198V24.0602ZM51.3453 27.1067V28.4071H41.0293V27.1067H45.3761V25.4101H42.2181V21.6205H48.596V20.3821H42.2058V19.1189H50.1565V22.8589H43.8033V24.1221H50.4165V25.4101H46.9489V27.1067H51.3453ZM61.4509 18.3882V24.1717H59.8657V18.3882H61.4509ZM61.4509 24.6175V27.6269H55.3702V28.3328H61.7605V29.5836H53.8098V26.4999H59.8905V25.8436H53.785V24.6175H61.4509ZM58.6025 19.0817V20.283H57.6737V22.5246C58.1381 22.4936 58.5963 22.4503 59.036 22.4007L59.1103 23.5277C56.8687 23.8868 54.3052 23.9488 52.3485 23.9488L52.1751 22.7103C52.559 22.7103 52.9677 22.7041 53.3887 22.698V20.283H52.4723V19.0817H58.6025ZM54.8996 22.6608C55.3145 22.6546 55.7294 22.6422 56.1504 22.6236V20.283H54.8996V22.6608ZM75.3708 18.3882V24.1221H73.798V21.3233H71.6803V20.0725H73.798V18.3882H75.3708ZM75.3708 24.5927V27.6021H69.4511V28.2956H75.6928V29.5341H67.8907V26.4504H73.8104V25.8064H67.8783V24.5927H75.3708ZM70.0951 19.5771C70.0827 20.927 70.8753 22.2274 72.671 22.7599L71.8413 23.9735C70.6338 23.5834 69.7917 22.828 69.3025 21.8558C68.8133 22.9394 67.9217 23.794 66.6028 24.2088L65.7854 22.958C67.6554 22.4131 68.4852 21.0385 68.4975 19.5771V18.7598H70.0951V19.5771ZM86.3309 18.3882V25.0757H84.7581V22.4131H82.9995V21.1375H84.7581V18.3882H86.3309ZM82.4794 25.3234C84.8819 25.3358 86.3556 26.1284 86.368 27.503C86.3556 28.8653 84.8819 29.6703 82.4794 29.6703C80.0768 29.6703 78.6031 28.8653 78.6031 27.503C78.6031 26.1284 80.0768 25.3358 82.4794 25.3234ZM82.4794 26.5371C80.9809 26.5371 80.1759 26.8467 80.1759 27.503C80.1759 28.147 80.9809 28.469 82.4794 28.469C83.9779 28.469 84.7952 28.147 84.7952 27.503C84.7952 26.8467 83.9779 26.5371 82.4794 26.5371ZM83.3339 19.0694V20.3326H81.0923C81.1295 21.6453 81.9221 22.9704 83.6806 23.5525L82.9004 24.7909C81.6558 24.3884 80.8013 23.571 80.3121 22.5493C79.8106 23.7011 78.9127 24.6299 77.5752 25.0881L76.7578 23.8373C78.6093 23.2181 79.439 21.7444 79.4824 20.3326H77.2161V19.0694H83.3339Z" fill="#262428"/>
<path d="M19.2933 38.0267C19.2933 39.2141 20.1184 40.3109 21.4668 40.7536L20.9536 41.5083C19.9675 41.1611 19.2279 40.4568 18.8405 39.5663C18.4431 40.5775 17.6783 41.3674 16.6268 41.7598L16.1137 40.9951C17.5224 40.492 18.3374 39.2946 18.3475 37.9462V37.0608H19.2933V38.0267ZM23.2679 36.5878V38.8518H24.576V39.6568H23.2679V42.0315H22.312V36.5878H23.2679ZM20.3599 42.2428C22.2114 42.2428 23.3484 42.8566 23.3484 43.9131C23.3484 44.9797 22.2114 45.5935 20.3599 45.5835C18.4884 45.5935 17.3312 44.9797 17.3312 43.9131C17.3312 42.8566 18.4884 42.2428 20.3599 42.2428ZM20.3599 42.9975C19.0518 42.9975 18.277 43.3396 18.2871 43.9131C18.277 44.5068 19.0518 44.8288 20.3599 44.8389C21.6579 44.8288 22.4126 44.5068 22.4126 43.9131C22.4126 43.3396 21.6579 42.9975 20.3599 42.9975ZM32.827 36.5878V45.6036H31.9113V40.9448H30.7441V45.1407H29.8687V36.769H30.7441V40.1599H31.9113V36.5878H32.827ZM28.7719 37.6746V38.4493H26.3469V42.6252C27.4538 42.6151 28.2889 42.5648 29.2549 42.3837L29.3254 43.1685C28.2386 43.3899 27.3129 43.4301 25.9948 43.4402H25.391V37.6746H28.7719ZM38.17 42.2026C40.0315 42.2026 41.1585 42.8264 41.1585 43.893C41.1585 44.9697 40.0315 45.5935 38.17 45.6036C36.2884 45.5935 35.1413 44.9697 35.1413 43.893C35.1413 42.8264 36.2884 42.2026 38.17 42.2026ZM38.17 42.9572C36.8619 42.9572 36.0872 43.2893 36.0972 43.893C36.0872 44.4967 36.8619 44.8389 38.17 44.8389C39.4681 44.8389 40.2227 44.4967 40.2227 43.893C40.2227 43.2893 39.4681 42.9572 38.17 42.9572ZM41.078 36.5878V38.7915H42.3861V39.6065H41.078V41.9711H40.1221V36.5878H41.078ZM35.2822 37.1513V38.4493H37.6468V37.1513H38.5926V41.3372H34.3464V37.1513H35.2822ZM35.2822 40.5725H37.6468V39.204H35.2822V40.5725ZM50.6572 36.5878V45.6036H49.7416V36.5878H50.6572ZM48.8259 36.7589V45.1608H47.9103V40.814H46.894C46.8135 42.5749 46.0588 43.6716 44.9419 43.6616C43.7646 43.6716 42.9999 42.434 42.9999 40.4819C42.9999 38.5298 43.7646 37.3023 44.9419 37.3123C46.0387 37.3023 46.7833 38.3437 46.894 40.0392H47.9103V36.7589H48.8259ZM44.9419 38.2079C44.2879 38.2079 43.8854 39.043 43.8854 40.4819C43.8854 41.9208 44.2879 42.756 44.9419 42.756C45.606 42.756 46.0186 41.9208 46.0186 40.4819C46.0186 39.043 45.606 38.2079 44.9419 38.2079ZM59.5522 36.5878V45.6036H58.6466V36.5878H59.5522ZM57.6505 36.8193V45.1608H56.7449V40.975H54.984C54.4457 42.0214 53.5904 42.9371 52.3175 43.6817L51.7741 42.9975C53.686 41.8604 54.6067 40.3461 54.7727 38.4896H52.1968V37.7047H55.7185C55.7135 38.5852 55.5928 39.4254 55.316 40.2102H56.7449V36.8193H57.6505ZM71.476 43.6918V44.4867H63.2249V43.6918H66.8574V41.8403H64.1708V37.2016H65.1267V38.7512H69.5541V37.2016H70.4999V41.8403H67.8032V43.6918H71.476ZM65.1267 41.0655H69.5541V39.526H65.1267V41.0655ZM74.5751 37.262C75.3952 37.262 76.0744 37.7349 76.4769 38.55H78.7006V36.5878H79.6465V45.6237H78.7006V42.1623H76.5372C76.1499 43.0679 75.4405 43.5911 74.5751 43.5911C73.2268 43.5911 72.2809 42.3635 72.291 40.4215C72.2809 38.4896 73.2268 37.262 74.5751 37.262ZM74.5751 38.1173C73.7601 38.1173 73.1966 39.0028 73.1966 40.4215C73.1966 41.8504 73.7601 42.7358 74.5751 42.7358C75.3902 42.7358 75.9536 41.8504 75.9536 40.4215C75.9536 39.0028 75.3902 38.1173 74.5751 38.1173ZM76.7486 39.3348C76.814 39.6669 76.8592 40.0291 76.8592 40.4215C76.8592 40.7637 76.8291 41.0806 76.7687 41.3775H78.7006V39.3348H76.7486ZM84.3556 39.2443C84.3556 40.7536 85.3417 42.3132 86.7303 42.9069L86.207 43.6515C85.1455 43.1836 84.3002 42.1925 83.8827 40.985C83.4651 42.273 82.6148 43.3698 81.5684 43.8829L81.0149 43.1283C82.3733 42.4944 83.3796 40.7938 83.3896 39.2443V38.2884H81.3269V37.4934H86.4083V38.2884H84.3556V39.2443ZM88.5012 36.5878V45.6036H87.5453V36.5878H88.5012ZM97.2352 39.2241V39.9889H91.0268V36.9098H91.9727V39.2241H97.2352ZM98.1811 41.1259V41.8906H89.9301V41.1259H98.1811ZM97.2956 44.6074V45.3923H90.9564V42.7459H91.9123V44.6074H97.2956ZM109.078 36.5878V45.6036H108.163V40.985H107.006V45.1407H106.11V36.769H107.006V40.2002H108.163V36.5878H109.078ZM102.739 37.6544V42.4642C103.574 42.4591 104.485 42.3937 105.506 42.1925L105.607 43.0277C104.369 43.249 103.333 43.3094 102.367 43.3094H101.783V37.6544H102.739ZM121.032 43.6716V44.4766H112.781V43.6716H121.032ZM120.278 37.4532V38.238H118.899V41.2466H120.247V42.0114H113.506V41.2466H114.854V38.238H113.486V37.4532H120.278ZM115.8 41.2466H117.963V38.238H115.8V41.2466ZM129.937 43.7219V44.5269H121.686V43.7219H125.319V42.1422H122.693V39.2744H127.985V38.0066H122.672V37.2218H128.931V40.0392H123.638V41.3573H129.142V42.1422H126.265V43.7219H129.937ZM138.088 36.5878V41.2466H137.122V36.5878H138.088ZM138.088 41.6592V43.893H133.067V44.7483H138.4V45.513H132.131V43.1987H137.142V42.4139H132.101V41.6592H138.088ZM135.884 37.1815V37.9362H135.019V40.0694C135.457 40.0392 135.889 39.9989 136.297 39.9486L136.337 40.6429C134.536 40.9146 132.433 40.975 130.853 40.975L130.742 40.2102C131.084 40.2102 131.457 40.2052 131.839 40.2002V37.9362H130.984V37.1815H135.884ZM132.755 40.18C133.198 40.165 133.65 40.1499 134.103 40.1197V37.9362H132.755V40.18Z" fill="#E38262"/>
<rect x="0.396296" y="68.3963" width="213.207" height="62.2074" rx="9.11481" stroke="#EDECEE" stroke-width="0.792593"/>
<path d="M190.222 95.4592L194.185 99.4222L190.222 103.385" stroke="#262428" stroke-width="1.58519"/>
<path d="M25.6232 86.2325V97.5269H24.0257V86.2325H25.6232ZM19.5054 87.0251C21.2021 87.0251 22.4652 88.5855 22.4652 91.0376C22.4652 93.5144 21.2021 95.0624 19.5054 95.0624C17.7716 95.0624 16.5084 93.5144 16.5208 91.0376C16.5084 88.5855 17.7716 87.0251 19.5054 87.0251ZM19.5054 88.4493C18.6261 88.4493 18.0441 89.3657 18.0441 91.0376C18.0441 92.7218 18.6261 93.6259 19.5054 93.6259C20.3599 93.6259 20.942 92.7218 20.942 91.0376C20.942 89.3657 20.3599 88.4493 19.5054 88.4493ZM31.2581 88.0034C31.2581 89.3657 32.0507 90.6784 33.834 91.2357L32.9919 92.4618C31.7968 92.0655 30.9608 91.2976 30.4779 90.3069C29.9887 91.4462 29.1156 92.3379 27.8276 92.7714L26.9731 91.5329C28.8555 90.9013 29.6605 89.4028 29.6729 87.8548V86.8269H31.2581V88.0034ZM36.0879 86.2325V88.8703H37.6112V90.183H36.0879V92.92H34.5027V86.2325H36.0879ZM32.3974 93.1429C34.7257 93.1429 36.1994 93.9479 36.1994 95.3225C36.1994 96.7096 34.7257 97.5021 32.3974 97.5021C30.0196 97.5021 28.5335 96.7096 28.5335 95.3225C28.5335 93.9479 30.0196 93.1429 32.3974 93.1429ZM32.3974 94.3813C30.9113 94.3813 30.1063 94.7033 30.1187 95.3225C30.1063 95.9665 30.9113 96.2637 32.3974 96.2637C33.8588 96.2637 34.639 95.9665 34.639 95.3225C34.639 94.7033 33.8588 94.3813 32.3974 94.3813ZM44.3978 87.2727V88.5236H38.1313V87.2727H40.5587V86.1334H42.1315V87.2727H44.3978ZM41.3265 88.8951C42.8745 88.9075 43.9891 89.762 44.0015 91.0128C43.9891 92.276 42.8745 93.1181 41.3265 93.1057C39.7661 93.1181 38.6762 92.276 38.6886 91.0128C38.6762 89.762 39.7661 88.9075 41.3265 88.8951ZM41.3265 90.0716C40.6082 90.0716 40.15 90.406 40.1624 91.0128C40.15 91.6196 40.6082 91.9416 41.3265 91.9416C42.0324 91.9416 42.5277 91.6196 42.5277 91.0128C42.5277 90.406 42.0324 90.0716 41.3265 90.0716ZM47.6053 86.2325V93.4153H46.0325V92.2265H44.4968V90.9633H46.0325V89.9725H44.5216V88.7093H46.0325V86.2325H47.6053ZM43.7786 93.5516C46.1687 93.5516 47.6672 94.2822 47.6672 95.533C47.6672 96.7591 46.1687 97.5021 43.7786 97.5021C41.376 97.5021 39.8899 96.7591 39.8899 95.533C39.8899 94.2822 41.376 93.5516 43.7786 93.5516ZM43.7786 94.7405C42.342 94.7528 41.5494 95.0005 41.5494 95.533C41.5494 96.0408 42.342 96.3133 43.7786 96.3133C45.1904 96.3133 45.9706 96.0408 45.9706 95.533C45.9706 95.0005 45.1904 94.7528 43.7786 94.7405ZM61.4881 86.2325V91.9664H59.9153V89.1675H57.7975V87.9167H59.9153V86.2325H61.4881ZM61.4881 92.437V95.4464H55.5684V96.1399H61.81V97.3783H54.008V94.2946H59.9276V93.6506H53.9956V92.437H61.4881ZM56.2124 87.4214C56.2 88.7712 56.9926 90.0716 58.7883 90.6041L57.9585 91.8178C56.7511 91.4277 55.9089 90.6722 55.4198 89.7001C54.9306 90.7837 54.0389 91.6382 52.72 92.0531L51.9026 90.8023C53.7727 90.2574 54.6024 88.8827 54.6148 87.4214V86.604H56.2124V87.4214ZM72.4481 86.2325V92.92H70.8753V90.2574H69.1168V88.9818H70.8753V86.2325H72.4481ZM68.5966 93.1677C70.9992 93.18 72.4729 93.9726 72.4853 95.3473C72.4729 96.7096 70.9992 97.5145 68.5966 97.5145C66.1941 97.5145 64.7203 96.7096 64.7203 95.3473C64.7203 93.9726 66.1941 93.18 68.5966 93.1677ZM68.5966 94.3813C67.0981 94.3813 66.2931 94.6909 66.2931 95.3473C66.2931 95.9913 67.0981 96.3133 68.5966 96.3133C70.0951 96.3133 70.9125 95.9913 70.9125 95.3473C70.9125 94.6909 70.0951 94.3813 68.5966 94.3813ZM69.4511 86.9136V88.1768H67.2096C67.2467 89.4895 68.0393 90.8146 69.7979 91.3967L69.0177 92.6351C67.7731 92.2326 66.9185 91.4153 66.4294 90.3936C65.9278 91.5453 65.0299 92.4741 63.6924 92.9324L62.8751 91.6815C64.7265 91.0623 65.5563 89.5886 65.5996 88.1768H63.3333V86.9136H69.4511Z" fill="#262428"/>
<path d="M24.4351 111.516V112.301H16.1841V111.516H19.7964V109.373H20.7423V111.516H24.4351ZM20.7624 105.69C20.7624 107.119 22.3321 108.457 24.0729 108.749L23.6603 109.534C22.2013 109.242 20.858 108.341 20.2593 107.099C19.6656 108.336 18.3374 109.252 16.8885 109.534L16.4658 108.749C18.1965 108.457 19.7562 107.119 19.7562 105.69V105.006H20.7624V105.69ZM32.8069 104.432V113.448H31.8912V108.769H30.7743V113.015H29.8788V104.674H30.7743V107.994H31.8912V104.432H32.8069ZM28.9832 105.579C28.9732 107.954 28.1883 110.077 25.6124 111.536L25.059 110.872C27.0614 109.74 27.9066 108.206 28.0575 106.364H25.4413V105.579H28.9832ZM41.078 104.432V106.566H42.3861V107.36H41.078V109.695H40.1221V104.432H41.078ZM35.2822 104.945V106.254H37.6468V104.945H38.5926V109.172H34.3464V104.945H35.2822ZM35.2822 108.417H37.6468V107.008H35.2822V108.417ZM41.1484 110.168V110.933H36.2884V112.563H41.3094V113.317H35.3325V110.168H41.1484ZM50.1944 105.298V106.183C50.1944 107.3 50.1944 108.548 49.8523 110.389L48.8863 110.289C49.2385 108.548 49.2385 107.27 49.2385 106.183V106.072H43.7646V105.298H50.1944ZM51.1201 111.436V112.231H42.8993V111.436H46.0286V108.256H46.9745V111.436H51.1201ZM61.7961 104.442V109.443H60.8402V104.442H61.7961ZM57.6002 105.64C57.5901 106.837 58.4655 107.934 59.844 108.357L59.3812 109.111C58.3196 108.769 57.5297 108.06 57.1172 107.139C56.7097 108.13 55.9047 108.91 54.823 109.272L54.3501 108.518C55.7588 108.055 56.6241 106.887 56.6241 105.64V104.764H57.6002V105.64ZM61.8565 109.936V110.701H60.6691V112.563H61.947V113.337H55.6682V112.563H56.9562V110.701H55.7487V109.936H61.8565ZM57.902 112.563H59.7233V110.701H57.902V112.563ZM71.4458 109.141V109.906H63.2249V109.141H71.4458ZM70.52 112.482V113.257H64.2613V110.641H65.2273V112.482H70.52ZM67.3303 104.734C69.2824 104.724 70.5502 105.408 70.5502 106.535C70.5502 107.672 69.2824 108.357 67.3303 108.367C65.3682 108.357 64.1104 107.672 64.1104 106.535C64.1104 105.408 65.3682 104.724 67.3303 104.734ZM67.3303 105.499C65.9518 105.499 65.0864 105.891 65.0965 106.535C65.0864 107.199 65.9518 107.582 67.3303 107.582C68.7088 107.582 69.5641 107.199 69.5641 106.535C69.5641 105.891 68.7088 105.499 67.3303 105.499ZM82.1117 104.432V113.468H81.1558V104.432H82.1117ZM77.2919 105.106C78.6302 105.106 79.6163 106.334 79.6163 108.266C79.6163 110.208 78.6302 111.436 77.2919 111.436C75.9335 111.436 74.9575 110.208 74.9575 108.266C74.9575 106.334 75.9335 105.106 77.2919 105.106ZM77.2919 105.962C76.4568 105.962 75.8832 106.847 75.8832 108.266C75.8832 109.695 76.4568 110.58 77.2919 110.58C78.117 110.58 78.6906 109.695 78.6906 108.266C78.6906 106.847 78.117 105.962 77.2919 105.962ZM86.6598 105.871C86.6598 107.059 87.4849 108.155 88.8333 108.598L88.3201 109.353C87.334 109.006 86.5944 108.301 86.207 107.411C85.8096 108.422 85.0448 109.212 83.9933 109.604L83.4802 108.84C84.8889 108.336 85.7039 107.139 85.714 105.791V104.905H86.6598V105.871ZM90.6344 104.432V106.696H91.9425V107.501H90.6344V109.876H89.6785V104.432H90.6344ZM87.7264 110.087C89.5779 110.087 90.7149 110.701 90.7149 111.758C90.7149 112.824 89.5779 113.438 87.7264 113.428C85.8549 113.438 84.6977 112.824 84.6977 111.758C84.6977 110.701 85.8549 110.087 87.7264 110.087ZM87.7264 110.842C86.4183 110.842 85.6435 111.184 85.6536 111.758C85.6435 112.351 86.4183 112.673 87.7264 112.683C89.0244 112.673 89.7791 112.351 89.7791 111.758C89.7791 111.184 89.0244 110.842 87.7264 110.842ZM97.5371 105.378V106.143H92.4657V105.378H94.5788V104.352H95.5246V105.378H97.5371ZM95.0417 106.555C96.2592 106.555 97.1145 107.23 97.1245 108.236C97.1145 109.242 96.2592 109.906 95.0417 109.906C93.8141 109.906 92.9688 109.242 92.9688 108.236C92.9688 107.23 93.8141 106.555 95.0417 106.555ZM95.0417 107.28C94.3272 107.28 93.8644 107.652 93.8644 108.236C93.8644 108.819 94.3272 109.182 95.0417 109.182C95.746 109.182 96.229 108.819 96.2391 108.236C96.229 107.652 95.746 107.28 95.0417 107.28ZM99.9721 104.432V110.238H99.0162V109.081H97.5572V108.306H99.0162V107.31H97.5673V106.535H99.0162V104.432H99.9721ZM96.9736 110.329C98.8653 110.329 100.022 110.892 100.022 111.878C100.022 112.854 98.8653 113.438 96.9736 113.428C95.0718 113.438 93.9147 112.854 93.9147 111.878C93.9147 110.892 95.0718 110.329 96.9736 110.329ZM96.9736 111.063C95.6756 111.063 94.9108 111.345 94.9108 111.878C94.9108 112.402 95.6756 112.703 96.9736 112.693C98.2414 112.703 99.0062 112.402 99.0062 111.878C99.0062 111.345 98.2414 111.063 96.9736 111.063Z" fill="#E38262"/>
</svg>
