<svg width="212" height="175" viewBox="0 0 212 175" fill="none" xmlns="http://www.w3.org/2000/svg">
<g clip-path="url(#clip0_57_2326)">
<rect x="2.3963" y="-46.6037" width="207.698" height="220.207" rx="9.11481" stroke="#EDECEE" stroke-width="0.792593"/>
<rect x="11.5312" y="114.431" width="189.429" height="33.3585" rx="7.14825" fill="#9462E4"/>
<path d="M74.1188 128.001V128.895C74.1095 129.947 74.1095 131.045 73.8116 132.636L72.946 132.543C73.2346 131.036 73.2346 129.919 73.2346 128.895V128.718H68.1247V128.001H74.1188ZM74.9472 133.679V134.414H67.3428V133.679H69.1392V130.98H70.0234V133.679H71.2241V130.98H72.0897V133.679H74.9472ZM82.719 127.201V135.54H81.872V131.268H80.8017V135.112H79.9733V127.368H80.8017V130.542H81.872V127.201H82.719ZM76.8552 128.187V132.636C77.6278 132.632 78.4701 132.571 79.4148 132.385L79.5079 133.158C78.3631 133.362 77.4044 133.418 76.5108 133.418H75.971V128.187H76.8552ZM93.7765 133.753V134.479H86.1442V133.753H89.4857V131.771H90.3606V133.753H93.7765ZM90.3792 128.364C90.3792 129.686 91.8312 130.924 93.4414 131.194L93.0598 131.92C91.7102 131.65 90.4676 130.817 89.9138 129.667C89.3647 130.812 88.1361 131.659 86.7958 131.92L86.4048 131.194C88.0058 130.924 89.4484 129.686 89.4484 128.364V127.731H90.3792V128.364ZM101.52 127.201V135.54H100.673V131.212H99.6403V135.14H98.8119V127.424H99.6403V130.496H100.673V127.201H101.52ZM97.9835 128.262C97.9742 130.458 97.2482 132.422 94.8655 133.772L94.3535 133.158C96.2058 132.111 96.9876 130.691 97.1272 128.988H94.7072V128.262H97.9835ZM107.105 127.806V128.513H103.987V129.435H106.872V130.133H103.987V131.082C105.658 131.091 106.63 131.063 107.757 130.868L107.85 131.585C106.64 131.78 105.606 131.808 103.782 131.808H103.093V127.806H107.105ZM109.534 127.21V132.339H108.65V127.21H109.534ZM106.742 132.45C108.492 132.45 109.581 133.018 109.581 133.986C109.581 134.963 108.492 135.531 106.742 135.522C104.974 135.531 103.903 134.963 103.903 133.986C103.903 133.018 104.974 132.45 106.742 132.45ZM106.742 133.148C105.495 133.148 104.787 133.456 104.787 133.986C104.787 134.535 105.495 134.842 106.742 134.842C107.961 134.842 108.697 134.535 108.697 133.986C108.697 133.456 107.961 133.148 106.742 133.148ZM120.098 127.21V133.316H119.214V127.21H120.098ZM120.35 134.647V135.364H114.644V132.739H115.538V134.647H120.35ZM116.217 128.495C116.208 129.714 116.99 130.831 118.274 131.278L117.818 131.985C116.855 131.627 116.143 130.919 115.77 130.012C115.403 130.98 114.681 131.757 113.704 132.134L113.229 131.436C114.542 130.952 115.314 129.751 115.314 128.495V127.666H116.217V128.495ZM124.343 128.979C124.343 129.956 125.152 130.877 126.418 131.231L125.999 131.92C125.036 131.645 124.305 131.049 123.924 130.282C123.561 131.143 122.835 131.822 121.839 132.134L121.42 131.454C122.686 131.045 123.468 130.049 123.468 128.979V128.876H121.653V128.169H123.468V127.164H124.352V128.169H126.158V128.876H124.343V128.979ZM128.373 127.201V132.255H127.489V130.263H125.897V129.537H127.489V127.201H128.373ZM125.581 132.441C127.321 132.441 128.401 132.999 128.401 133.977C128.401 134.963 127.321 135.531 125.581 135.522C123.831 135.531 122.751 134.963 122.76 133.977C122.751 132.999 123.831 132.441 125.581 132.441ZM125.581 133.13C124.361 133.13 123.635 133.437 123.635 133.977C123.635 134.517 124.361 134.842 125.581 134.842C126.809 134.842 127.526 134.517 127.526 133.977C127.526 133.437 126.809 133.13 125.581 133.13ZM136.154 127.201V130.579H137.494V131.315H136.154V135.54H135.279V127.201H136.154ZM134.553 128.504V129.23H129.611V128.504H131.668V127.312H132.552V128.504H134.553ZM132.115 129.844C133.306 129.844 134.181 130.645 134.19 131.78C134.181 132.925 133.306 133.716 132.115 133.725C130.914 133.716 130.039 132.925 130.039 131.78C130.039 130.645 130.914 129.844 132.115 129.844ZM132.115 130.57C131.407 130.57 130.877 131.063 130.886 131.78C130.877 132.506 131.407 132.99 132.115 132.981C132.822 132.99 133.343 132.506 133.343 131.78C133.343 131.063 132.822 130.57 132.115 130.57ZM144.829 127.201V135.54H143.935V127.201H144.829ZM142.344 128.094C142.344 130.533 141.301 132.655 138.444 134.023L137.978 133.307C140.198 132.25 141.278 130.747 141.45 128.802H138.379V128.094H142.344Z" fill="white"/>
<path d="M95.3459 -0.927807V0.859255H96.4908V1.82725H95.3459V3.847H94.1545V-0.927807H95.3459ZM95.3459 4.22861V7.43043H89.7986V4.22861H95.3459ZM90.962 5.15006V6.49967H94.1825V5.15006H90.962ZM90.1616 -0.52758V2.41363C91.1854 2.39501 92.2884 2.29728 93.4658 2.06924L93.6054 3.03724C92.2092 3.31646 90.8969 3.39093 89.6962 3.39093H88.9702V-0.52758H90.1616ZM104.588 3.39093V4.3403H96.8631V3.39093H104.588ZM103.713 6.43452V7.38389H97.7938V4.90807H98.9852V6.43452H103.713ZM100.726 -0.676502C102.578 -0.685809 103.797 -0.0249688 103.807 1.05471C103.797 2.1344 102.578 2.80455 100.726 2.80455C98.8549 2.80455 97.6356 2.1344 97.6356 1.05471C97.6356 -0.0249688 98.8549 -0.685809 100.726 -0.676502ZM100.726 0.25426C99.553 0.263567 98.8642 0.542796 98.8735 1.05471C98.8642 1.58525 99.553 1.84586 100.726 1.84586C101.898 1.84586 102.578 1.58525 102.578 1.05471C102.578 0.542796 101.898 0.263567 100.726 0.25426ZM110.592 0.980254C110.592 2.53463 111.299 4.0983 112.733 4.7033L112.034 5.65268C111.066 5.21522 110.396 4.37288 110.015 3.32577C109.628 4.46596 108.935 5.38741 107.902 5.85744L107.185 4.87084C108.665 4.24723 109.382 2.6277 109.391 0.980254V-0.285582H110.592V0.980254ZM114.389 -0.937115V7.55143H113.189V-0.937115H114.389ZM122.254 -0.937115V1.43633H123.399V2.41363H122.254V5.13145H121.054V-0.937115H122.254ZM119.946 -0.304197C119.946 1.98548 118.513 3.58639 115.972 4.30307L115.478 3.363C117.372 2.83247 118.447 1.85052 118.643 0.663795H115.851V-0.304197H119.946ZM122.543 6.43452V7.38389H116.744V4.50784H117.945V6.43452H122.543Z" fill="#262428"/>
<path d="M52.614 25.1221V23.5992L56.5302 17.4945H58.949V23.5736H60.1264V25.1221H58.949V26.7603H57.1189V25.1221H52.614ZM54.5593 23.5736H57.1445V19.6062H57.0549L54.5593 23.4968V23.5736ZM64.3113 16.6371C66.0775 16.6371 67.4212 17.7377 67.4212 19.299C67.4212 20.8348 66.0775 21.9482 64.3113 21.9482C62.5068 21.9482 61.1758 20.8348 61.1758 19.299C61.1758 17.7377 62.5068 16.6371 64.3113 16.6371ZM64.3113 17.968C63.4155 17.968 62.75 18.4544 62.7628 19.299C62.75 20.1309 63.4155 20.63 64.3113 20.63C65.1944 20.63 65.8471 20.1309 65.8471 19.299C65.8471 18.4544 65.1944 17.968 64.3113 17.968ZM70.7487 16.2915V22.1274H69.1106V16.2915H70.7487ZM70.7487 22.6137V25.7748H64.5545V26.5299H71.0687V27.8097H62.9548V24.5846H69.1234V23.8679H62.9292V22.6137H70.7487ZM75.7271 26.7603L75.7143 25.3653L79.0418 22.3066C79.9121 21.4747 80.3728 20.9628 80.3728 20.2333C80.3728 19.4142 79.7457 18.9023 78.901 18.9023C78.0308 18.9023 77.4677 19.4526 77.4677 20.3357H75.6375C75.6247 18.5184 76.9685 17.3665 78.9266 17.3665C80.9103 17.3665 82.2285 18.4928 82.2285 20.1053C82.2285 21.1547 81.7166 22.025 79.8097 23.7527L78.4019 25.1221V25.1733H82.3565V26.7603H75.7271ZM87.3221 26.8882C85.0057 26.8882 83.5979 25.1605 83.5979 22.1274C83.5979 19.0943 85.0057 17.3665 87.3221 17.3665C89.6385 17.3665 91.0463 19.1071 91.0463 22.1274C91.0463 25.1733 89.6385 26.8882 87.3221 26.8882ZM87.3221 25.3013C88.3971 25.3013 89.0882 24.2646 89.0754 22.1274C89.0754 20.0157 88.3971 18.9407 87.3221 18.9407C86.2471 18.9407 85.5688 20.0157 85.5688 22.1274C85.556 24.2646 86.2471 25.3013 87.3221 25.3013ZM96.5238 18.9279C96.5238 21.0652 97.4965 23.2152 99.4674 24.0471L98.5075 25.3525C97.1765 24.751 96.2551 23.5928 95.7304 22.153C95.1992 23.7207 94.2458 24.9877 92.8252 25.634L91.8398 24.2774C93.8746 23.42 94.8601 21.1931 94.8729 18.9279V17.1874H96.5238V18.9279ZM101.745 16.2915V27.9633H100.094V16.2915H101.745ZM106.57 25.1221V23.5992L110.486 17.4945H112.905V23.5736H114.083V25.1221H112.905V26.7603H111.075V25.1221H106.57ZM108.516 23.5736H111.101V19.6062H111.011L108.516 23.4968V23.5736ZM118.767 26.8882C116.732 26.8882 115.273 25.762 115.234 24.1495H117.18C117.218 24.8406 117.884 25.3013 118.779 25.3013C119.701 25.3013 120.366 24.7766 120.354 24.0343C120.366 23.2792 119.688 22.7417 118.6 22.7417H117.743V21.3211H118.6C119.509 21.3211 120.149 20.822 120.149 20.0925C120.149 19.3886 119.611 18.9023 118.792 18.9023C117.973 18.9023 117.295 19.363 117.269 20.0669H115.426C115.452 18.4672 116.898 17.3665 118.792 17.3665C120.725 17.3665 122.017 18.5056 122.005 19.9773C122.017 21.014 121.288 21.7562 120.251 21.9354V22.0122C121.608 22.1786 122.363 23.0104 122.35 24.1623C122.363 25.7492 120.853 26.8882 118.767 26.8882ZM133.971 22.2682V23.548H129.581V25.4293H127.968V23.548H123.31V22.2682H133.971ZM132.793 26.4275V27.7329H124.564V24.5078H126.177V26.4275H132.793ZM126.292 16.6627V17.8785H130.963V16.6627H132.589V21.4491H124.679V16.6627H126.292ZM126.292 20.1565H130.963V19.0943H126.292V20.1565ZM142.046 17.4945V26.7603H140.114V19.3246H140.063L137.938 20.6556V18.9535L140.229 17.4945H142.046ZM147.677 26.8882C145.566 26.8882 144.043 25.7748 144.043 24.2646C144.043 23.1 144.939 22.153 146.09 21.9738V21.9098C145.092 21.7179 144.401 20.8732 144.401 19.8621C144.401 18.416 145.783 17.3665 147.677 17.3665C149.571 17.3665 150.954 18.416 150.966 19.8621C150.954 20.886 150.25 21.7179 149.277 21.9098V21.9738C150.403 22.153 151.312 23.1 151.312 24.2646C151.312 25.7748 149.789 26.8882 147.677 26.8882ZM147.677 25.4165C148.65 25.4165 149.303 24.8662 149.303 24.0727C149.303 23.2664 148.624 22.6777 147.677 22.6777C146.73 22.6777 146.039 23.2664 146.052 24.0727C146.039 24.8662 146.692 25.4165 147.677 25.4165ZM147.677 21.3211C148.496 21.3211 149.085 20.7964 149.085 20.0541C149.085 19.3374 148.509 18.8255 147.677 18.8255C146.845 18.8255 146.282 19.3246 146.282 20.0541C146.282 20.7964 146.858 21.3211 147.677 21.3211ZM162.907 25.2757V26.6067H152.246V25.2757H156.751V22.9977H158.376V25.2757H162.907ZM161.973 17.8913V19.1967H158.415C158.549 20.4892 159.867 21.801 162.523 22.1274L161.934 23.3944C159.848 23.132 158.344 22.2682 157.57 21.0652C156.783 22.2682 155.292 23.132 153.206 23.3944L152.605 22.1274C155.26 21.801 156.578 20.4892 156.725 19.1967H153.168V17.8913H156.751V16.4323H158.376V17.8913H161.973Z" fill="#9462E4"/>
<rect x="11.8291" y="51.5862" width="188.833" height="53.0162" rx="6.8504" stroke="#EDECEE" stroke-width="0.595687"/>
<path d="M183.089 75.116L186.068 78.0944L183.089 81.0728" stroke="#262428" stroke-width="1.19137"/>
<path d="M30.7885 68.1627V76.6513H29.5878V68.1627H30.7885ZM26.1906 68.7584C27.4657 68.7584 28.4151 69.9312 28.4151 71.7741C28.4151 73.6356 27.4657 74.7991 26.1906 74.7991C24.8875 74.7991 23.9381 73.6356 23.9474 71.7741C23.9381 69.9312 24.8875 68.7584 26.1906 68.7584ZM26.1906 69.8288C25.5297 69.8288 25.0923 70.5176 25.0923 71.7741C25.0923 73.0399 25.5297 73.7194 26.1906 73.7194C26.8328 73.7194 27.2703 73.0399 27.2703 71.7741C27.2703 70.5176 26.8328 69.8288 26.1906 69.8288ZM35.0235 69.4937C35.0235 70.5176 35.6192 71.5042 36.9595 71.923L36.3266 72.8445C35.4284 72.5466 34.8001 71.9696 34.4371 71.2249C34.0695 72.0812 33.4133 72.7514 32.4453 73.0772L31.8031 72.1464C33.2178 71.6717 33.8228 70.5455 33.8321 69.382V68.6095H35.0235V69.4937ZM38.6535 68.1627V70.1453H39.7983V71.1319H38.6535V73.1889H37.4621V68.1627H38.6535ZM35.8798 73.3564C37.6296 73.3564 38.7372 73.9614 38.7372 74.9945C38.7372 76.037 37.6296 76.6327 35.8798 76.6327C34.0927 76.6327 32.9758 76.037 32.9758 74.9945C32.9758 73.9614 34.0927 73.3564 35.8798 73.3564ZM35.8798 74.2871C34.7629 74.2871 34.1579 74.5291 34.1672 74.9945C34.1579 75.4785 34.7629 75.7019 35.8798 75.7019C36.9781 75.7019 37.5645 75.4785 37.5645 74.9945C37.5645 74.5291 36.9781 74.2871 35.8798 74.2871ZM44.8989 68.9446V69.8846H40.1892V68.9446H42.0135V68.0883H43.1956V68.9446H44.8989ZM42.5906 70.1639C43.754 70.1732 44.5917 70.8154 44.601 71.7555C44.5917 72.7049 43.754 73.3378 42.5906 73.3285C41.4178 73.3378 40.5988 72.7049 40.6081 71.7555C40.5988 70.8154 41.4178 70.1732 42.5906 70.1639ZM42.5906 71.0481C42.0507 71.0481 41.7064 71.2994 41.7157 71.7555C41.7064 72.2116 42.0507 72.4535 42.5906 72.4535C43.1211 72.4535 43.4934 72.2116 43.4934 71.7555C43.4934 71.2994 43.1211 71.0481 42.5906 71.0481ZM47.3095 68.1627V73.5612H46.1275V72.6676H44.9733V71.7182H46.1275V70.9736H44.992V70.0243H46.1275V68.1627H47.3095ZM44.4335 73.6635C46.2299 73.6635 47.3561 74.2127 47.3561 75.1528C47.3561 76.0742 46.2299 76.6327 44.4335 76.6327C42.6278 76.6327 41.5109 76.0742 41.5109 75.1528C41.5109 74.2127 42.6278 73.6635 44.4335 73.6635ZM44.4335 74.5571C43.3538 74.5664 42.7581 74.7525 42.7581 75.1528C42.7581 75.5344 43.3538 75.7391 44.4335 75.7391C45.4946 75.7391 46.0809 75.5344 46.0809 75.1528C46.0809 74.7525 45.4946 74.5664 44.4335 74.5571ZM57.7434 68.1627V72.4722H56.5613V70.3686H54.9697V69.4286H56.5613V68.1627H57.7434ZM57.7434 72.8259V75.0876H53.2943V75.6088H57.9854V76.5396H52.1216V74.222H56.5706V73.738H52.1123V72.8259H57.7434ZM53.7783 69.0563C53.769 70.0708 54.3647 71.0481 55.7143 71.4483L55.0907 72.3605C54.1832 72.0673 53.5503 71.4995 53.1827 70.7689C52.815 71.5833 52.1449 72.2255 51.1536 72.5373L50.5393 71.5972C51.9447 71.1877 52.5684 70.1546 52.5777 69.0563V68.442H53.7783V69.0563ZM65.9806 68.1627V73.1889H64.7986V71.1877H63.4769V70.229H64.7986V68.1627H65.9806ZM63.086 73.375C64.8916 73.3843 65.9992 73.98 66.0085 75.0131C65.9992 76.037 64.8916 76.642 63.086 76.642C61.2803 76.642 60.1727 76.037 60.1727 75.0131C60.1727 73.98 61.2803 73.3843 63.086 73.375ZM63.086 74.2871C61.9597 74.2871 61.3547 74.5198 61.3547 75.0131C61.3547 75.4971 61.9597 75.7391 63.086 75.7391C64.2122 75.7391 64.8265 75.4971 64.8265 75.0131C64.8265 74.5198 64.2122 74.2871 63.086 74.2871ZM63.7282 68.6747V69.624H62.0435C62.0714 70.6106 62.6671 71.6066 63.9888 72.044L63.4024 72.9748C62.467 72.6723 61.8248 72.058 61.4571 71.2901C61.0802 72.1557 60.4054 72.8538 59.4001 73.1982L58.7858 72.2581C60.1773 71.7927 60.8009 70.6851 60.8335 69.624H59.1302V68.6747H63.7282Z" fill="#262428"/>
<path d="M29.3057 81.3439V88.135H28.5873V81.3439H29.3057ZM25.6833 81.8506C26.6891 81.8506 27.4302 82.7732 27.4302 84.2252C27.4302 85.6848 26.6891 86.6074 25.6833 86.6074C24.6624 86.6074 23.9288 85.6848 23.9288 84.2252C23.9288 82.7732 24.6624 81.8506 25.6833 81.8506ZM25.6833 82.4934C25.0556 82.4934 24.6246 83.1589 24.6246 84.2252C24.6246 85.2991 25.0556 85.9646 25.6833 85.9646C26.3034 85.9646 26.7345 85.2991 26.7345 84.2252C26.7345 83.1589 26.3034 82.4934 25.6833 82.4934ZM32.7239 82.4253C32.7239 83.3177 33.3441 84.142 34.3574 84.4748L33.9717 85.0419C33.2306 84.781 32.6748 84.2517 32.3836 83.5824C32.0849 84.3424 31.5102 84.9361 30.7199 85.231L30.3342 84.6563C31.3929 84.2781 32.0055 83.3782 32.0131 82.3648V81.6993H32.7239V82.4253ZM35.7111 81.3439V83.0455H36.6942V83.6505H35.7111V85.4352H34.9927V81.3439H35.7111ZM33.5256 85.594C34.917 85.594 35.7716 86.0553 35.7716 86.8494C35.7716 87.651 34.917 88.1123 33.5256 88.1047C32.1189 88.1123 31.2493 87.651 31.2493 86.8494C31.2493 86.0553 32.1189 85.594 33.5256 85.594ZM33.5256 86.1612C32.5424 86.1612 31.9601 86.4183 31.9677 86.8494C31.9601 87.2956 32.5424 87.5376 33.5256 87.5451C34.5011 87.5376 35.0683 87.2956 35.0683 86.8494C35.0683 86.4183 34.5011 86.1612 33.5256 86.1612ZM40.8989 82.0548V82.6295H37.0875V82.0548H38.6756V81.2834H39.3864V82.0548H40.8989ZM39.0234 82.9396C39.9385 82.9396 40.5813 83.4463 40.5889 84.2025C40.5813 84.9588 39.9385 85.4579 39.0234 85.4579C38.1008 85.4579 37.4656 84.9588 37.4656 84.2025C37.4656 83.4463 38.1008 82.9396 39.0234 82.9396ZM39.0234 83.4841C38.4865 83.4841 38.1386 83.7639 38.1386 84.2025C38.1386 84.6411 38.4865 84.9134 39.0234 84.9134C39.5528 84.9134 39.9158 84.6411 39.9234 84.2025C39.9158 83.7639 39.5528 83.4841 39.0234 83.4841ZM42.729 81.3439V85.7074H42.0106V84.8378H40.9141V84.2555H42.0106V83.5068H40.9216V82.9245H42.0106V81.3439H42.729ZM40.4754 85.7755C41.8972 85.7755 42.7669 86.199 42.7669 86.9401C42.7669 87.6737 41.8972 88.1123 40.4754 88.1047C39.0461 88.1123 38.1765 87.6737 38.1765 86.9401C38.1765 86.199 39.0461 85.7755 40.4754 85.7755ZM40.4754 86.3276C39.4999 86.3276 38.9251 86.5393 38.9251 86.9401C38.9251 87.3334 39.4999 87.5602 40.4754 87.5527C41.4283 87.5602 42.003 87.3334 42.003 86.9401C42.003 86.5393 41.4283 86.3276 40.4754 86.3276ZM51.3124 81.3439V84.8302H50.594V83.0908H49.1647V82.5085H50.594V81.3439H51.3124ZM51.3124 85.1478V86.8342H47.5992V87.4619H51.5468V88.0367H46.8959V86.2897H50.6015V85.715H46.8808V85.1478H51.3124ZM48.0454 82.1531C48.0454 83.0152 48.6656 83.8168 49.6865 84.142L49.3084 84.7016C48.5635 84.4445 48.0001 83.934 47.7051 83.2875C47.4064 84.0135 46.8241 84.5844 46.0263 84.8604L45.6406 84.2857C46.6993 83.9454 47.327 83.106 47.3346 82.1531V81.5632H48.0454V82.1531ZM58.0052 81.3439V85.3747H57.2867V83.658H56.0238V83.0681H57.2867V81.3439H58.0052ZM55.7364 85.5638C57.1582 85.5638 58.0278 86.0326 58.0278 86.8418C58.0278 87.651 57.1582 88.1123 55.7364 88.1199C54.3147 88.1123 53.4374 87.651 53.445 86.8418C53.4374 86.0326 54.3147 85.5638 55.7364 85.5638ZM55.7364 86.1234C54.7458 86.1234 54.1559 86.3805 54.1559 86.8418C54.1559 87.2956 54.7458 87.5602 55.7364 87.5527C56.7271 87.5602 57.317 87.2956 57.317 86.8418C57.317 86.3805 56.7271 86.1234 55.7364 86.1234ZM54.7836 82.5388C54.7836 83.4009 55.3961 84.2328 56.417 84.5806L56.0465 85.1478C55.2865 84.8831 54.7268 84.3424 54.4357 83.6731C54.137 84.4332 53.5433 85.0419 52.7341 85.3369L52.356 84.7621C53.4072 84.3991 54.05 83.4841 54.05 82.5463V82.3951H52.5829V81.8128H56.2356V82.3951H54.7836V82.5388ZM62.9964 81.6464C63.987 81.6464 64.6828 82.1909 64.6904 83.0001C64.6828 83.6883 64.161 84.195 63.3745 84.316V84.9134C63.9757 84.8831 64.5769 84.8302 65.1365 84.747L65.1895 85.2764C63.7677 85.5335 62.1721 85.5562 61.0074 85.5562L60.9318 84.9739C61.4385 84.9777 62.0322 84.9739 62.6561 84.9512V84.3235C61.8469 84.2101 61.3024 83.6996 61.3099 83.0001C61.3024 82.1909 62.0057 81.6464 62.9964 81.6464ZM62.9964 82.1985C62.3989 82.1985 61.9754 82.5085 61.983 83.0001C61.9754 83.4765 62.3989 83.7941 62.9964 83.7941C63.6014 83.7941 64.0097 83.4765 64.0097 83.0001C64.0097 82.5085 63.6014 82.1985 62.9964 82.1985ZM66.2709 81.3515V83.59H67.2389V84.195H66.2709V86.5317H65.5525V81.3515H66.2709ZM66.5129 87.3863V87.9762H61.8923V86.078H62.6107V87.3863H66.5129ZM73.8333 86.7057V87.3107H67.6321V86.7057H69.3261V85.5108H68.3884V83.3555H72.3662V82.4102H68.3733V81.8203H73.0771V83.9378H69.0993V84.9209H73.2359V85.5108H72.2074V86.7057H73.8333ZM70.0219 86.7057H71.5041V85.5108H70.0219V86.7057Z" fill="#9462E4"/>
<path d="M79.4601 156.277V162.531H78.8248V159.271H78.05V162.224H77.4217V156.395H78.05V158.727H78.8248V156.277H79.4601ZM76.7167 156.982V160.884H74.2874V156.982H76.7167ZM74.9156 157.505V160.353H76.0954V157.505H74.9156ZM85.9591 159.802V160.339H83.4182V162.524H82.7689V160.339H80.2559V159.802H85.9591ZM85.4216 156.647V157.177H83.488C83.4984 157.952 84.4618 158.643 85.645 158.804L85.4007 159.327C84.3745 159.167 83.488 158.661 83.111 157.945C82.7236 158.661 81.8405 159.167 80.8283 159.327L80.577 158.804C81.7463 158.643 82.7096 157.952 82.734 157.177H80.7864V156.647H85.4216ZM93.1772 156.591V157.065C93.1772 157.558 93.1772 158.116 93.0166 158.873H93.9032V159.418H88.179V158.873H92.3465C92.514 158.144 92.521 157.61 92.521 157.135H88.898V156.591H93.1772ZM93.1842 160.214V162.455H88.8771V160.214H93.1842ZM89.5263 160.737V161.917H92.528V160.737H89.5263ZM100.081 161.198V161.75H94.3569V161.198H95.7251V159.565C95.2121 159.282 94.9014 158.832 94.9014 158.273C94.9014 157.289 95.8648 156.64 97.2051 156.64C98.5523 156.64 99.5157 157.289 99.5157 158.273C99.5157 158.825 99.2155 159.268 98.7129 159.551V161.198H100.081ZM97.2051 157.17C96.2208 157.17 95.5436 157.596 95.5436 158.273C95.5436 158.943 96.2208 159.383 97.2051 159.383C98.1824 159.383 98.8734 158.943 98.8734 158.273C98.8734 157.596 98.1824 157.17 97.2051 157.17ZM96.3813 161.198H98.0427V159.802C97.7879 159.868 97.5052 159.9 97.2051 159.9C96.9119 159.9 96.6326 159.868 96.3813 159.809V161.198ZM102.308 156.486C103.25 156.493 103.941 157.072 103.948 157.889C103.941 158.713 103.25 159.285 102.308 159.285C101.359 159.285 100.661 158.713 100.661 157.889C100.661 157.072 101.359 156.493 102.308 156.486ZM102.308 157.045C101.729 157.038 101.303 157.38 101.31 157.889C101.303 158.406 101.729 158.748 102.308 158.748C102.88 158.748 103.306 158.406 103.306 157.889C103.306 157.38 102.88 157.038 102.308 157.045ZM105.722 156.277V159.46H105.058V156.277H105.722ZM105.722 159.746V161.324H102.273V161.924H105.931V162.455H101.631V160.828H105.065V160.277H101.61V159.746H105.722ZM112.095 156.277V162.531H111.46V156.277H112.095ZM110.824 156.395V162.224H110.189V159.209H109.484C109.428 160.43 108.905 161.191 108.13 161.184C107.313 161.191 106.783 160.332 106.783 158.978C106.783 157.624 107.313 156.772 108.13 156.779C108.891 156.772 109.407 157.495 109.484 158.671H110.189V156.395H110.824ZM108.13 157.401C107.676 157.401 107.397 157.98 107.397 158.978C107.397 159.976 107.676 160.556 108.13 160.556C108.591 160.556 108.877 159.976 108.877 158.978C108.877 157.98 108.591 157.401 108.13 157.401ZM117.798 156.898V160.961H114.873V156.898H117.798ZM115.522 157.421V160.423H117.142V157.421H115.522ZM119.508 156.277V158.727H120.514V159.285H119.508V162.531H118.845V156.277H119.508ZM125.728 156.277V157.75H126.636V158.301H125.728V159.809H125.065V156.277H125.728ZM124.004 156.668C123.997 158.273 122.915 159.397 121.051 159.9L120.786 159.369C122.28 158.975 123.163 158.189 123.285 157.212H121.079V156.668H124.004ZM125.728 160.074V162.448H121.721V160.074H125.728ZM122.384 160.626V161.917H125.072V160.626H122.384ZM126.915 160.667C127.299 160.664 127.781 160.661 128.283 160.647V159.46H127.229V156.891H129.903V157.428H127.878V158.922H129.959V159.46H128.918V160.619C129.351 160.601 129.781 160.573 130.154 160.528L130.189 161.01C129.163 161.184 127.843 161.212 127.006 161.219L126.915 160.667ZM132.367 156.277V162.531H131.732V159.383H131.048V162.21H130.433V156.402H131.048V158.846H131.732V156.277H132.367ZM138.894 161.198V161.75H133.17V161.198H134.538V159.565C134.025 159.282 133.714 158.832 133.714 158.273C133.714 157.289 134.678 156.64 136.018 156.64C137.365 156.64 138.328 157.289 138.328 158.273C138.328 158.825 138.028 159.268 137.526 159.551V161.198H138.894ZM136.018 157.17C135.034 157.17 134.356 157.596 134.356 158.273C134.356 158.943 135.034 159.383 136.018 159.383C136.995 159.383 137.686 158.943 137.686 158.273C137.686 157.596 136.995 157.17 136.018 157.17ZM135.194 161.198H136.855V159.802C136.601 159.868 136.318 159.9 136.018 159.9C135.725 159.9 135.445 159.868 135.194 159.809V161.198Z" fill="#A6A2A9"/>
<rect x="-10" y="-2" width="232" height="40" fill="url(#paint0_linear_57_2326)"/>
</g>
<defs>
<linearGradient id="paint0_linear_57_2326" x1="106" y1="-2" x2="106" y2="38" gradientUnits="userSpaceOnUse">
<stop offset="0.116123" stop-color="white"/>
<stop offset="1" stop-color="white" stop-opacity="0"/>
</linearGradient>
<clipPath id="clip0_57_2326">
<rect width="212" height="175" fill="white"/>
</clipPath>
</defs>
</svg>
