<svg width="24" height="24" viewBox="0 0 24 24" fill="none" xmlns="http://www.w3.org/2000/svg">
<g clip-path="url(#clip0_1_3783)">
<g clip-path="url(#clip1_1_3783)">
<path d="M10.3122 22.4211L9.86615 22.0523L9.3162 21.5813C9.12393 21.4141 8.92311 21.2367 8.71495 21.0498C7.52585 19.9824 6.3367 18.8226 5.2244 17.6081C3.54651 15.776 2.19343 13.9825 1.28025 12.2733C0.449878 10.719 0 9.264 0 7.9183C0 4.0957 3.11713 1 6.9662 1C8.59197 1 10.0293 1.59699 11.2569 2.579C11.5386 2.8044 11.787 3.03019 12.0018 3.24642C12.213 3.03019 12.4614 2.8044 12.7431 2.579C13.9707 1.59699 15.408 1 17.0338 1C20.8829 1 24 4.0957 24 7.9183C24 9.264 23.5501 10.719 22.7197 12.2733C21.8066 13.9825 20.4535 15.776 18.7756 17.6081C17.6633 18.8226 16.4742 19.9824 15.285 21.0498L14.6838 21.5813L14.1339 22.0523L13.6641 22.4395C13.1829 22.7996 12.6088 23 12 23C11.3912 23 10.8171 22.7996 10.3122 22.4211Z" fill="#FF5C4B"/>
<path d="M12.6042 5.36201L12.5081 5.43434C12.4109 5.49844 12.3016 5.54291 12.1898 5.56622L12.0543 5.58414H11.9454C11.8267 5.57729 11.7082 5.54759 11.5967 5.49368C11.5239 5.45851 11.4566 5.41473 11.3954 5.36201L11.302 5.26925L11.2319 5.17743L11.1609 5.08L11.0399 4.92892C11.0156 4.89974 10.9893 4.86867 10.961 4.83589C10.7173 4.55387 10.4285 4.27038 10.0988 4.00659C9.17588 3.26832 8.12812 2.83313 6.96603 2.83313C4.13641 2.83313 1.8457 5.10809 1.8457 7.91825C1.8457 8.92428 2.21005 10.1027 2.91064 11.414C3.74113 12.9684 5.00699 14.6463 6.58976 16.3746C7.65806 17.541 8.80527 18.66 9.95252 19.6898L10.5316 20.2017L11.4467 20.9754C11.5815 21.0763 11.7281 21.1382 11.8825 21.159L11.9998 21.1668C12.1975 21.1668 12.3845 21.1015 12.5292 20.9938L12.9399 20.6541L13.468 20.2017C13.653 20.0408 13.8464 19.8699 14.0471 19.6898C15.1944 18.66 16.3416 17.541 17.4099 16.3746C18.9927 14.6463 20.2585 12.9684 21.089 11.414C21.7896 10.1027 22.1539 8.92428 22.1539 7.91825C22.1539 5.10809 19.8632 2.83313 17.0336 2.83313C15.8715 2.83313 14.8238 3.26832 13.9009 4.00659C13.5711 4.27038 13.2824 4.55387 13.0387 4.83589L12.893 5.01064L12.7969 5.13594L12.7392 5.218C12.726 5.2355 12.7122 5.2526 12.6976 5.26925L12.6042 5.36201Z" fill="#FF5C4B"/>
</g>
</g>
<defs>
<clipPath id="clip0_1_3783">
<rect width="24" height="24" fill="white"/>
</clipPath>
<clipPath id="clip1_1_3783">
<rect width="24" height="24" fill="white"/>
</clipPath>
</defs>
</svg>
