<svg width="56" height="56" viewBox="0 0 56 56" fill="none" xmlns="http://www.w3.org/2000/svg">
<g clip-path="url(#clip0_169_1096)">
<circle cx="28" cy="28" r="25.5" fill="white" stroke="#273D60" stroke-width="5"/>
<circle cx="28" cy="28" r="22" fill="#273D60"/>
<path d="M38.3125 20.6172H34.3281L33.3789 17.957C33.3133 17.775 33.1932 17.6177 33.0348 17.5065C32.8764 17.3953 32.6876 17.3358 32.4941 17.3359H23.5059C23.1104 17.3359 22.7559 17.585 22.624 17.957L21.6719 20.6172H17.6875C16.3926 20.6172 15.3438 21.666 15.3438 22.9609V36.3203C15.3438 37.6152 16.3926 38.6641 17.6875 38.6641H38.3125C39.6074 38.6641 40.6563 37.6152 40.6563 36.3203V22.9609C40.6563 21.666 39.6074 20.6172 38.3125 20.6172ZM28 33.9766C25.4102 33.9766 23.3125 31.8789 23.3125 29.2891C23.3125 26.6992 25.4102 24.6016 28 24.6016C30.5898 24.6016 32.6875 26.6992 32.6875 29.2891C32.6875 31.8789 30.5898 33.9766 28 33.9766ZM25.1875 29.2891C25.1875 30.035 25.4838 30.7504 26.0113 31.2778C26.5387 31.8052 27.2541 32.1016 28 32.1016C28.7459 32.1016 29.4613 31.8052 29.9887 31.2778C30.5162 30.7504 30.8125 30.035 30.8125 29.2891C30.8125 28.5431 30.5162 27.8278 29.9887 27.3003C29.4613 26.7729 28.7459 26.4766 28 26.4766C27.2541 26.4766 26.5387 26.7729 26.0113 27.3003C25.4838 27.8278 25.1875 28.5431 25.1875 29.2891Z" fill="white"/>
</g>
<defs>
<clipPath id="clip0_169_1096">
<rect width="56" height="56" fill="white"/>
</clipPath>
</defs>
</svg>
