<svg width="24" height="24" viewBox="0 0 24 24" fill="none" xmlns="http://www.w3.org/2000/svg">
<path d="M12.0112 9.15474C11.3105 9.15474 10.6542 9.42661 10.1573 9.92349C9.6628 10.4204 9.38858 11.0766 9.38858 11.7774C9.38858 12.4782 9.6628 13.1344 10.1573 13.6313C10.6542 14.1258 11.3105 14.4001 12.0112 14.4001C12.712 14.4001 13.3683 14.1258 13.8651 13.6313C14.3597 13.1344 14.6339 12.4782 14.6339 11.7774C14.6339 11.0766 14.3597 10.4204 13.8651 9.92349C13.6225 9.67893 13.3336 9.48504 13.0153 9.35307C12.6971 9.2211 12.3558 9.15368 12.0112 9.15474ZM21.6745 14.6743L20.1417 13.3641C20.2144 12.9188 20.2519 12.4641 20.2519 12.0118C20.2519 11.5594 20.2144 11.1024 20.1417 10.6594L21.6745 9.34927C21.7903 9.25014 21.8732 9.11812 21.9121 8.97075C21.9511 8.82338 21.9442 8.66765 21.8925 8.52427L21.8714 8.46333C21.4496 7.2837 20.8175 6.19026 20.0058 5.23599L19.9636 5.18677C19.865 5.07087 19.7337 4.98756 19.5868 4.94782C19.4399 4.90807 19.2845 4.91375 19.1409 4.96411L17.2378 5.64146C16.5347 5.06489 15.7519 4.61021 14.9034 4.2938L14.5355 2.30396C14.5077 2.15405 14.435 2.01615 14.327 1.90856C14.219 1.80097 14.0808 1.72879 13.9308 1.70161L13.8675 1.68989C12.6487 1.46958 11.3644 1.46958 10.1456 1.68989L10.0823 1.70161C9.93233 1.72879 9.79414 1.80097 9.68613 1.90856C9.57812 2.01615 9.50541 2.15405 9.47765 2.30396L9.10733 4.30317C8.26693 4.6221 7.48404 5.07569 6.78937 5.64614L4.87218 4.96411C4.72866 4.91335 4.57309 4.90746 4.42615 4.94724C4.27921 4.98701 4.14785 5.07055 4.04952 5.18677L4.00734 5.23599C3.19708 6.19128 2.56516 7.28444 2.14171 8.46333L2.12062 8.52427C2.01515 8.81724 2.10187 9.14536 2.33859 9.34927L3.89015 10.6735C3.81749 11.1141 3.78234 11.5641 3.78234 12.0094C3.78234 12.4594 3.81749 12.9094 3.89015 13.3454L2.34327 14.6696C2.22748 14.7687 2.14461 14.9007 2.10567 15.0481C2.06674 15.1955 2.07358 15.3512 2.1253 15.4946L2.1464 15.5555C2.57062 16.7344 3.1964 17.8243 4.01202 18.7829L4.05421 18.8321C4.15277 18.948 4.28414 19.0313 4.431 19.071C4.57785 19.1108 4.7333 19.1051 4.87687 19.0547L6.79405 18.3727C7.49249 18.9469 8.27062 19.4016 9.11202 19.7157L9.48233 21.7149C9.5101 21.8648 9.58281 22.0027 9.69082 22.1103C9.79883 22.2179 9.93701 22.2901 10.087 22.3172L10.1503 22.329C11.381 22.5505 12.6414 22.5505 13.8722 22.329L13.9355 22.3172C14.0855 22.2901 14.2237 22.2179 14.3317 22.1103C14.4397 22.0027 14.5124 21.8648 14.5401 21.7149L14.9081 19.725C15.7566 19.4063 16.5394 18.954 17.2425 18.3774L19.1456 19.0547C19.2891 19.1055 19.4447 19.1114 19.5916 19.0716C19.7386 19.0318 19.8699 18.9483 19.9683 18.8321L20.0105 18.7829C20.8261 17.8196 21.4519 16.7344 21.8761 15.5555L21.8972 15.4946C21.998 15.204 21.9112 14.8782 21.6745 14.6743ZM12.0112 15.8977C9.73546 15.8977 7.89093 14.0532 7.89093 11.7774C7.89093 9.50161 9.73546 7.65708 12.0112 7.65708C14.287 7.65708 16.1316 9.50161 16.1316 11.7774C16.1316 14.0532 14.287 15.8977 12.0112 15.8977Z" fill="#273D60"/>
</svg>
