<svg width="15" height="15" viewBox="0 0 15 15" fill="none" xmlns="http://www.w3.org/2000/svg">
<circle cx="7.5" cy="7.5" r="7.5" fill="#E38262"/>
<path d="M7.51465 11.0977C6.0498 11.0977 5.00488 10.3066 4.96582 9.1543H6.05957C6.09863 9.7793 6.71387 10.1699 7.50488 10.1699C8.35449 10.1699 8.97949 9.70117 8.97949 9.01758C8.97949 8.32422 8.39355 7.81641 7.3877 7.81641H6.78223V6.9375H7.3877C8.18848 6.9375 8.75488 6.48828 8.75488 5.81445C8.75488 5.16992 8.27637 4.73047 7.52441 4.73047C6.81152 4.73047 6.18652 5.12109 6.15723 5.76562H5.12207C5.15137 4.61328 6.21582 3.83203 7.53418 3.83203C8.9209 3.83203 9.7998 4.71094 9.79004 5.75586C9.7998 6.55664 9.30176 7.14258 8.54004 7.32812V7.37695C9.50684 7.51367 10.0635 8.1582 10.0635 9.05664C10.0635 10.2383 8.97949 11.0977 7.51465 11.0977Z" fill="white"/>
</svg>
