<svg width="20" height="20" viewBox="0 0 20 20" fill="none" xmlns="http://www.w3.org/2000/svg">
<path d="M16.763 11.7944L18.029 14.0222C17.8786 14.3163 17.7105 14.6051 17.5244 14.8873C17.3383 15.1695 17.1391 15.4378 16.9281 15.6919L14.4377 15.4142C13.7715 15.9608 13.0027 16.3869 12.1645 16.6592L11.0002 18.945C10.6719 18.9813 10.3382 19 10.0002 19C9.66221 19 9.32855 18.9813 9.00022 18.945L7.83293 16.6582C6.99428 16.3854 6.22514 15.9585 5.5589 15.4111L3.05407 15.6915C2.84303 15.4374 2.64381 15.1691 2.45774 14.8869C2.27168 14.6047 2.10356 14.3159 1.95312 14.0218L3.22637 11.7814C3.07803 11.2142 3.00021 10.6139 3.00021 10.0002C3.00021 9.37489 3.08219 8.76877 3.23599 8.19195L1.95351 5.936C2.10394 5.64191 2.27206 5.3531 2.45812 5.07091C2.64419 4.78873 2.84341 4.52043 3.05445 4.2663L5.60942 4.55327C6.26776 4.02075 7.01625 3.60683 7.84 3.33984M7.83614 3.33996L8.99997 1.05493C9.32831 1.01863 9.66196 1 9.99997 1C10.338 1 10.6716 1.01863 11 1.05493L12.1638 3.33996C12.9882 3.60716 13.7389 4.01764 14.3976 4.55077L16.9275 4.26661C17.1385 4.52074 17.3377 4.78904 17.5238 5.07123C17.7098 5.35341 17.878 5.64223 18.0284 5.93632L16.7592 8.16967M16.7594 8.17317C16.9164 8.7556 17.0002 9.3681 17.0002 10.0002C17.0002 10.6215 16.9193 11.2239 16.7673 11.7974M13.0002 10.0002C13.0002 11.657 11.6571 13.0002 10.0002 13.0002C8.34335 13.0002 7.0002 11.657 7.0002 10.0002C7.0002 8.3433 8.34335 7.00015 10.0002 7.00015C11.6571 7.00015 13.0002 8.3433 13.0002 10.0002Z" stroke="#262428" stroke-width="2" stroke-linecap="round" stroke-linejoin="round"/>
</svg>
