<svg width="19" height="19" viewBox="0 0 19 19" xmlns="http://www.w3.org/2000/svg">
    <g fill="#20D61C" fill-rule="nonzero">
        <path d="M17.528 13.611 15.011 11.1c-.9-.897-2.428-.538-2.787.628-.27.808-1.169 1.256-1.978 1.077-1.798-.449-4.225-2.781-4.675-4.665-.27-.808.27-1.705 1.079-1.974 1.169-.359 1.528-1.884.63-2.78L4.761.871c-.72-.628-1.798-.628-2.427 0L.627 2.577c-1.709 1.794.18 6.549 4.405 10.765 4.225 4.217 8.99 6.19 10.788 4.396l1.708-1.704c.63-.718.63-1.795 0-2.423zM11.186 2.73c1.578.008 2.801.42 3.64 1.257s1.253 2.057 1.261 3.63a.539.539 0 0 1-1.079.007c-.007-1.312-.329-2.261-.945-2.876-.616-.614-1.567-.935-2.883-.943a.539.539 0 1 1 .006-1.076z"/>
        <path d="M10.97 0c2.488.097 4.423.817 5.78 2.175 1.353 1.355 2.098 3.313 2.249 5.85a.539.539 0 0 1-1.077.064c-.137-2.293-.787-4.003-1.937-5.154-1.147-1.149-2.824-1.773-5.056-1.86A.539.539 0 1 1 10.97 0z"/>
    </g>
</svg>
